<?xml version="1.0" standalone="no"?>
<!DOCTYPE svg PUBLIC "-//W3C//DTD SVG 1.1//EN" "http://www.w3.org/Graphics/SVG/1.1/DTD/svg11.dtd">
<svg xmlns="http://www.w3.org/2000/svg">
<metadata>Generated by Fontastic.me</metadata>
<defs>
<font id="hemelios" horiz-adv-x="512">
<font-face font-family="hemelios" units-per-em="512" ascent="480" descent="-32"/>
<missing-glyph horiz-adv-x="512" />

<glyph glyph-name="adjustments" unicode="&#97;" d="M481 504l-450 0c-13 0-31-18-31-31l0-434c0-13 18-31 31-31l450 0c13 0 31 18 31 31l0 434c0 13-18 31-31 31z m15-465c0-5-11-16-15-16l-450 0c-4 0-15 11-15 16l0 434c0 5 11 16 15 16l450 0c4 0 15-11 15-16z m-240 380c-17 0-31-14-31-31 0-17 14-31 31-31 17 0 31 14 31 31 0 17-14 31-31 31z m0-47c-9 0-16 7-16 16 0 8 7 15 16 15 9 0 16-7 16-15 0-9-7-16-16-16z m124-201c-17 0-31-14-31-31 0-17 14-31 31-31 17 0 31 14 31 31 0 17-14 31-31 31z m0-47c-8 0-15 7-15 16 0 8 7 15 15 15 9 0 16-7 16-15 0-9-7-16-16-16z m-248 124c-17 0-31-14-31-31 0-17 14-31 31-31 17 0 31 14 31 31 0 17-14 31-31 31z m0-46c-9 0-16 7-16 15 0 9 7 16 16 16 8 0 15-7 15-16 0-8-7-15-15-15z m0 70c4 0 8 3 8 7l0 140c0 4-4 8-8 8-4 0-8-4-8-8l0-140c0-4 4-7 8-7z m0-109c-4 0-8-4-8-8l0-46c0-5 4-8 8-8 4 0 8 3 8 8l0 46c0 4-4 8-8 8z m124 171c-4 0-8-4-8-8l0-217c0-5 4-8 8-8 4 0 8 3 8 8l0 217c0 4-4 8-8 8z m124-140c4 0 8 3 8 8l0 217c0 4-4 8-8 8-4 0-8-4-8-8l0-217c0-5 4-8 8-8z"/>
<glyph glyph-name="alarmclock" unicode="&#98;" d="M256 480c-124 0-224-100-224-224 0-124 100-224 224-224 124 0 224 100 224 224 0 124-100 224-224 224z m0-432c-115 0-208 93-208 208 0 115 93 208 208 208 115 0 208-93 208-208 0-115-93-208-208-208z m-120 464c-66 0-120-54-120-120l0-17c0-4 4-8 8-8 4 0 8 4 8 8l0 17c0 57 47 104 104 104l14 0c4 0 8 4 8 8 0 4-4 8-8 8z m238 0l-14 0c-4 0-8-4-8-8 0-4 4-8 8-8l14 0c57 0 104-47 104-104l0-17c0-4 4-8 8-8 4 0 8 4 8 8l0 17c0 66-54 120-120 120z m-118-261l0 112c0 4-4 8-8 8-4 0-8-4-8-8l0-115c0-2 1-4 2-6l79-78c2-2 4-3 6-3 2 0 4 1 5 3 3 3 3 8 0 11z m-210-248l48 64c3 4 2 9-1 11-4 3-9 2-11-1l-48-64c-3-4-2-9 1-11 2-1 3-2 5-2 2 0 5 1 6 3z m384 74c-2 3-7 4-11 1-3-2-4-7-1-11l48-64c1-2 4-3 6-3 2 0 3 1 5 2 3 2 4 7 1 11z"/>
<glyph glyph-name="anchor" unicode="&#99;" d="M12 214l32 32 0-12c0-111 101-212 212-212 111 0 212 101 212 212l0 11 32-32c2-1 4-2 6-2 1 0 3 1 5 2 3 3 3 8 0 10l-44 45c-2 1-4 3-6 3-1 0-1-1-2-1-1 0-3-1-4-2l-44-44c-3-3-3-7 0-10 3-3 7-3 10 0l32 32 0-12c0-101-89-193-190-197l0 278 125 0c4 0 7 3 7 7 0 4-3 7-7 7l-125 0 0 59c25 4 44 25 44 51 0 28-23 51-51 51-28 0-51-23-51-51 0-26 19-47 44-51l0-59-125 0c-4 0-7-3-7-7 0-4 3-7 7-7l125 0 0-278c-101 4-190 96-190 197l0 12 32-33c2-1 3-2 5-2 2 0 4 1 5 2 3 3 3 8 0 10l-45 45c-1 2-3 3-5 3-2 0-4-1-5-3l-44-44c-3-3-3-7 0-10 2-3 7-3 10 0z m244 261c20 0 37-16 37-36 0-20-17-37-37-37-20 0-37 17-37 37 0 20 17 36 37 36z"/>
<glyph glyph-name="aperture" unicode="&#100;" d="M256 0c141 0 256 115 256 256 0 141-115 256-256 256-141 0-256-115-256-256 0-141 115-256 256-256z m-133 456c-14-38-21-77-20-117 1-29 6-57 15-85 7-22 16-43 27-62 2-3 4-6 6-9 1-3 4-4 6-4 2 0 3 1 5 1 3 3 5 8 2 11-2 3-3 6-5 9-10 18-19 38-26 58-8 27-13 54-14 82-1 41 7 83 24 123 1 2 2 4 2 6 34 17 71 27 111 27 38 0 74-9 107-25-40-7-77-21-111-41-25-15-47-34-67-56-15-17-29-35-40-54-2-3-3-6-5-9-2-4-1-9 3-11 1-1 3-1 4-1 3 0 6 1 7 4 2 3 3 6 5 9 10 18 23 35 38 51 19 21 40 39 63 53 36 22 75 36 118 41 2 1 5 1 7 1 63-40 105-108 110-187-25 31-56 57-91 75-25 14-52 24-81 31-26 5-52 8-78 7-4 0-8-4-7-8 0-5 3-8 8-8 0 0 0 0 0 0 24 1 49-2 73-7 28-6 54-16 78-29 36-19 68-47 95-82 1-1 2-3 3-4-3-79-44-149-106-190 14 38 21 77 20 117-1 29-6 57-15 85-7 22-16 43-27 62-2 3-4 6-6 9-2 4-7 5-11 3-3-3-5-8-2-11 2-3 3-6 5-9 10-18 19-38 26-58 8-27 13-54 14-82 1-41-7-83-24-123-1-2-2-4-2-6-34-17-71-27-111-27-38 0-74 9-107 25 40 7 77 21 111 41 25 15 47 34 67 56 15 17 29 35 40 54 2 3 3 6 5 9 2 4 1 9-3 11-4 2-9 1-11-3-2-3-3-6-5-9-10-18-23-35-38-51-19-21-40-39-63-53-36-22-75-36-118-41-2-1-5-1-7-1-63 40-105 108-110 187 25-31 56-57 91-75 25-14 52-24 81-31 22-5 45-7 67-7 4 0 7 0 11 0 4 0 7 4 7 8 0 5-3 9-8 8-24-1-49 2-73 7-28 6-54 16-78 29-37 19-68 47-95 82-1 1-2 3-3 4 3 79 44 149 106 190z"/>
<glyph glyph-name="attachments" unicode="&#101;" d="M304 248c2 0 5 0 8 0 19 0 38 8 52 22l118 118c14 14 22 32 22 52 0 19-7 38-21 51-14 14-32 22-51 22 0 0 0 0-1 0-19-1-37-8-51-22l-119-119c-17-17-25-42-20-66 1-5 5-8 10-7 5 1 8 6 7 10-4 19 2 38 15 51l119 119c10 10 25 16 39 16 16 0 29-5 40-16 10-10 16-24 16-39 0-15-6-29-17-40l-118-118c-13-12-29-18-46-16-5 0-9-3-10-8 0-5 3-9 8-10z m-62-108c19 18 26 44 20 69-1 5-6 7-10 6-5-1-8-5-7-10 5-19-1-39-15-53l-118-119c-11-10-25-16-40-16-15-1-29 5-39 16-11 10-17 24-16 39 0 15 6 29 16 40l119 118c12 12 29 18 46 16 5 0 9 3 10 8 0 5-3 9-8 9-22 3-44-5-60-21l-119-118c-14-14-21-32-22-52 0-19 8-38 22-51 13-14 31-22 51-22 0 0 0 0 0 0 20 1 38 8 52 22z m122 230c-4 3-9 3-12 0l-216-216c-4-3-4-9 0-12 1-2 4-3 6-3 2 0 4 1 6 3l216 216c3 3 3 9 0 12z"/>
<glyph glyph-name="back28" unicode="&#102;" d="M257-3c-142 0-257 116-257 258 0 142 115 257 257 257 142 0 258-115 258-257 0-142-116-258-258-258z m0 498c-132 0-240-108-240-240 0-133 108-240 240-240 133 0 240 107 240 240 0 132-107 240-240 240z m30-331c-2 0-4 1-6 3l-85 85c-4 4-4 9 0 13l85 85c3 3 9 3 12 0 4-4 4-9 0-13l-79-79 79-79c4-3 4-9 0-12-1-2-4-3-6-3z"/>
<glyph glyph-name="bargraph" unicode="&#103;" d="M370 334l0-284c0-3 0-5 1-7l-45 0c1 2 1 4 1 7l0 412c0 12-9 22-21 22l-100 0c-12 0-21-10-21-22l0-412c0-3 0-5 1-7l-45 0c1 2 1 4 1 7l0 156c0 12-9 22-21 22l-100 0c-11 0-21-10-21-22l0-156c0-12 10-22 21-22l470 0c11 0 21 10 21 22l0 284c0 12-10 22-21 22l-100 0c-12 0-21-10-21-22z m-299-291l-50 0c-4 0-7 3-7 7l0 156c0 4 3 7 7 7l100 0c4 0 7-3 7-7l0-156c0-4-3-7-7-7z m135 0c-4 0-7 3-7 7l0 412c0 4 3 7 7 7l100 0c4 0 7-3 7-7l0-412c0-4-3-7-7-7z m292 291l0-284c0-4-3-7-7-7l-100 0c-4 0-7 3-7 7l0 284c0 4 3 7 7 7l100 0c4 0 7-3 7-7z"/>
<glyph glyph-name="basket" unicode="&#104;" d="M482 280l-452 0c-1 0-3 0-4-2-1-1-2-3-1-5l48-195c2-5 5-17 18-17l330 0c13 0 16 12 18 17l48 195c1 2 0 4-1 5-1 2-3 2-4 2z m-55-199c-2-8-5-8-6-8l-330 0c-1 0-4 0-6 8l-47 187 436 0z m-201 29c3 0 6 2 6 6l0 110c0 3-3 6-6 6-4 0-7-3-7-6l0-110c0-4 3-6 7-6z m-86 0c0 0 1 0 1 0 3 0 6 3 5 6l-12 110c0 4-3 6-7 6-3-1-5-4-5-7l12-110c0-3 3-5 6-5z m159 0c3 0 6 2 6 6l0 110c0 3-3 6-6 6-4 0-6-3-6-6l0-110c0-4 2-6 6-6z m72 0c0 0 1 0 1 0 3 0 6 2 6 5l12 110c0 3-2 6-5 7-4 0-7-2-7-6l-12-110c-1-3 2-6 5-6z m50 195c1 0 2 0 4 1 2 2 2 6 0 9l-116 134c-2 2-6 3-8 1-3-3-3-6-1-9l116-134c1-2 3-2 5-2z m-204 145c-2 2-6 1-8-1l-110-134c-2-3-2-7 1-9 1-1 2-1 4-1 1 0 3 1 4 2l110 134c2 3 2 7-1 9z m289-121l-49 0c-3 0-6-3-6-6 0-3 3-6 6-6l49 0c3 0 6 3 6 6 0 3-3 6-6 6z m-341-12l195 0c3 0 6 3 6 6 0 3-3 6-6 6l-195 0c-4 0-7-3-7-6 0-3 3-6 7-6z m-159 0l61 0c3 0 6 3 6 6 0 3-3 6-6 6l-61 0c-3 0-6-3-6-6 0-3 3-6 6-6z"/>
<glyph glyph-name="beaker" unicode="&#105;" d="M320 496c4 0 8 4 8 8 0 4-4 8-8 8l-144 0c-4 0-8-4-8-8 0-4 4-8 8-8z m-264-426c-17-24-15-40-11-49 5-10 18-21 51-21l320 0c33 0 46 11 51 21 4 9 6 25-11 48l-99 160-1 2c-8 10-44 73-44 125l0 116c0 4-4 8-8 8l-112 0c-4 0-8-4-8-8l0-116c0-56-39-127-40-128z m397-42c-4-8-18-12-37-12l-320 0c-19 0-33 4-37 12-3 7 0 19 10 33l80 143 0 0c15-8 30-17 60-17 30 0 45 9 59 17 14 8 26 15 52 15 10 0 18-1 26-3l97-155c10-14 13-26 10-33z m-253 328l0 108 96 0 0-108c0-45 24-97 38-122-4 1-9 1-14 1-30 0-45-8-60-17-13-7-25-15-51-15-26 0-38 8-52 15l0 0 1 2c0 0 42 75 42 136z"/>
<glyph glyph-name="bike" unicode="&#106;" d="M416 302c-18 0-34-5-48-13l-62 95 87 0c0-5-1-12-6-18-5-6-14-9-26-9-2 0-4-2-4-5 0-3 2-5 4-5 15 0 26 5 33 13 10 12 8 28 8 29 0 2-2 4-4 4l-101 0c-2 0-3-1-4-2-1-2-1-4 0-5l26-40-145 0-28 47 51 0c2 0 4 2 4 5 0 2-2 4-4 4l-83 0c-2 0-4-2-4-4 0-3 2-5 4-5l21 0c1 0 1 0 1 0l31-52-28-50c-13 7-28 11-43 11-53 0-96-43-96-96 0-53 43-96 96-96 51 0 93 40 95 91l102 0c0-5-1-12-6-18-6-6-15-9-26-9-3 0-5-2-5-5 0-2 2-4 5-4 14 0 25 4 33 12 10 12 8 28 8 28 0 3-2 4-5 4l-35 0 64 127 34-52c-24-18-40-46-40-78 0-53 43-96 96-96 53 0 96 43 96 96 0 53-43 96-96 96z m-100 36l-62-124-74 124z m-144-6l74-123-54 0c-1 33-19 62-45 78z m11-123l-80 0 39 70c24-15 39-40 41-70z m-87-90c-48 0-87 39-87 87 0 48 39 87 87 87 14 0 27-4 38-10l-43-76c-1-1-1-3 0-4 1-2 2-3 4-2l88 0c-3-46-41-82-87-82z m320 0c-48 0-87 39-87 87 0 29 14 54 36 70l48-74c1-1 2-2 4-2 1 0 2 0 2 1 2 1 3 4 2 6l-48 74c13 7 27 12 43 12 48 0 87-39 87-87 0-48-39-87-87-87z"/>
<glyph glyph-name="book-open" unicode="&#107;" d="M457 439l-195 0c-5 0-9-2-12-5-3 3-7 5-12 5l-195 0c-11 0-19-8-19-18l0-342c0-10 8-18 19-18l195 0c5 0 9 2 12 4 3-2 7-4 12-4l195 0c11 0 18 8 18 18l0 342c0 10-7 18-18 18z m-219-366l-195 0c-4 0-6 2-6 6l0 342c0 3 2 6 6 6l195 0c4 0 6-3 6-6l0-342c0-4-2-6-6-6z m225 6c0-4-2-6-6-6l-195 0c-4 0-6 2-6 6l0 342c0 3 2 6 6 6l195 0c4 0 6-3 6-6z m31 335c-4 0-6-2-6-6l0-317c0-3 2-6 6-6 3 0 6 3 6 6l0 317c0 4-3 6-6 6z m-488-329c3 0 6 3 6 6l0 317c0 4-3 6-6 6-3 0-6-2-6-6l0-317c0-3 3-6 6-6z m207 244l-146 0c-3 0-6-3-6-6 0-3 3-6 6-6l146 0c4 0 6 3 6 6 0 3-2 6-6 6z m0-49l-146 0c-3 0-6-2-6-6 0-3 3-6 6-6l146 0c4 0 6 3 6 6 0 4-2 6-6 6z m0 98l-146 0c-3 0-6-3-6-6 0-4 3-6 6-6l146 0c4 0 6 2 6 6 0 3-2 6-6 6z m0-146l-146 0c-3 0-6-3-6-6 0-4 3-7 6-7l146 0c4 0 6 3 6 7 0 3-2 6-6 6z m0-49l-146 0c-3 0-6-3-6-6 0-4 3-6 6-6l146 0c4 0 6 2 6 6 0 3-2 6-6 6z m0-49l-146 0c-3 0-6-3-6-6 0-3 3-6 6-6l146 0c4 0 6 3 6 6 0 3-2 6-6 6z m220 195l-147 0c-3 0-6-3-6-6 0-3 3-6 6-6l147 0c3 0 6 3 6 6 0 3-3 6-6 6z m0-49l-147 0c-3 0-6-2-6-6 0-3 3-6 6-6l147 0c3 0 6 3 6 6 0 4-3 6-6 6z m0 98l-147 0c-3 0-6-3-6-6 0-4 3-6 6-6l147 0c3 0 6 2 6 6 0 3-3 6-6 6z m0-146l-147 0c-3 0-6-3-6-6 0-4 3-7 6-7l147 0c3 0 6 3 6 7 0 3-3 6-6 6z m0-49l-147 0c-3 0-6-3-6-6 0-4 3-6 6-6l147 0c3 0 6 2 6 6 0 3-3 6-6 6z m0-49l-147 0c-3 0-6-3-6-6 0-3 3-6 6-6l147 0c3 0 6 3 6 6 0 3-3 6-6 6z"/>
<glyph glyph-name="briefcase" unicode="&#108;" d="M505 229c-3 0-6-3-6-7l0-161c0-4-3-7-7-7l-472 0c-4 0-7 3-7 7l0 161c0 4-3 7-6 7-4 0-7-3-7-7l0-161c0-12 9-21 20-21l472 0c11 0 20 9 20 21l0 161c0 4-3 7-7 7z m-161 175c3 0 6 3 6 7l0 40c0 12-9 21-20 21l-148 0c-11 0-20-9-20-21l0-40c0-4 3-7 6-7 4 0 7 3 7 7l0 40c0 4 3 7 7 7l148 0c4 0 7-3 7-7l0-40c0-4 3-7 7-7z m148-27l-472 0c-11 0-20-9-20-20l0-67c0-37 127-87 258-87 128 0 254 50 254 87l0 67c0 11-9 20-20 20z m7-87c0-24-114-74-241-74-129 0-245 50-245 74l0 67c0 4 3 7 7 7l472 0c4 0 7-3 7-7z m-241-128c12 0 26 0 39 1 4 1 6 4 6 7 0 4-3 7-7 7-27-2-53-2-80 0-3 0-7-2-7-6 0-4 2-7 6-7 14-2 29-2 43-2z"/>
<glyph glyph-name="browser" unicode="&#109;" d="M506 329c-3 0-6-3-6-6l0-244c0-3-3-6-6-6l-476 0c-3 0-6 3-6 6l0 244c0 3-3 6-6 6-3 0-6-3-6-6l0-244c0-10 8-18 18-18l476 0c10 0 18 8 18 18l0 244c0 3-3 6-6 6z m-12 122l-476 0c-10 0-18-8-18-18l0-73c0-4 3-6 6-6l500 0c3 0 6 2 6 6l0 73c0 10-8 18-18 18z m6-85l-488 0 0 67c0 3 3 6 6 6l476 0c3 0 6-3 6-6z m-287-256c4 0 6 2 6 6l0 195c0 3-2 6-6 6l-158 0c-4 0-6-3-6-6l0-195c0-4 2-6 6-6z m-152 195l146 0 0-183-146 0z m213-37l183 0c4 0 6 3 6 6 0 4-2 6-6 6l-183 0c-3 0-6-2-6-6 0-3 3-6 6-6z m0-61l183 0c4 0 6 3 6 6 0 4-2 6-6 6l-183 0c-3 0-6-2-6-6 0-3 3-6 6-6z m0-61l183 0c4 0 6 3 6 6 0 4-2 6-6 6l-183 0c-3 0-6-2-6-6 0-3 3-6 6-6z m-213 256c0-6-6-12-12-12-7 0-12 6-12 12 0 7 5 12 12 12 6 0 12-5 12-12z m49 0c0-6-6-12-12-12-7 0-13 6-13 12 0 7 6 12 13 12 6 0 12-5 12-12z m48 0c0-6-5-12-12-12-6 0-12 6-12 12 0 7 6 12 12 12 7 0 12-5 12-12z"/>
<glyph glyph-name="calendar" unicode="&#110;" d="M512 38l0 286c0 4-3 7-8 7-4 0-7-3-7-7l0-286c0-5-3-8-8-8l-466 0c-5 0-8 3-8 8l0 286c0 4-3 7-7 7-5 0-8-3-8-7l0-286c0-13 10-23 23-23l466 0c13 0 23 10 23 23z m-444 113c-4 0-8-4-8-8 0-4 4-7 8-7l22 0 0-53c0-4 4-8 8-8 4 0 7 4 7 8l0 53 91 0 0-53c0-4 3-8 7-8 4 0 8 4 8 8l0 53 90 0 0-53c0-4 4-8 8-8 4 0 7 4 7 8l0 53 91 0 0-53c0-4 3-8 7-8 4 0 8 4 8 8l0 53 22 0c4 0 8 3 8 7 0 4-4 8-8 8l-22 0 0 75 22 0c4 0 8 3 8 7 0 5-4 8-8 8l-22 0 0 68c0 4-4 7-8 7-4 0-7-3-7-7l0-68-91 0 0 68c0 4-3 7-7 7-4 0-8-3-8-7l0-68-90 0 0 68c0 4-4 7-8 7-4 0-7-3-7-7l0-68-91 0 0 68c0 4-3 7-7 7-4 0-8-3-8-7l0-68-22 0c-4 0-8-3-8-8 0-4 4-7 8-7l22 0 0-75z m339 75l0-75-91 0 0 75z m-106 0l0-75-90 0 0 75z m-196 0l91 0 0-75-91 0z m324 226l64 0c1 0 4 0 4-8l0-68-482 0 0 68c0 4 3 8 8 8l60 0c4 0 7 3 7 7 0 4-3 8-7 8l-60 0c-13 0-23-10-23-23l0-75c0-4 3-8 8-8l496 0c5 0 8 4 8 8l0 75c0 17-10 23-19 23l-64 0c-4 0-7-4-7-8 0-4 3-7 7-7z m-90 0c4 0 7 3 7 7 0 4-3 8-7 8l-166 0c-4 0-7-4-7-8 0-4 3-7 7-7z m-203-23l0 60c0 5-4 8-8 8-4 0-8-3-8-8l0-60c0-4 4-7 8-7 4 0 8 3 8 7z m248-7c4 0 8 3 8 7l0 60c0 5-4 8-8 8-4 0-8-3-8-8l0-60c0-4 4-7 8-7z"/>
<glyph glyph-name="camera" unicode="&#111;" d="M482 378l-92 0c-23 0-24 22-24 24l0 12c0 16-17 37-49 37l-122 0c-35 0-48-22-48-37l0-12c0-1-1-24-25-24l-92 0c-16 0-30-14-30-31l0-219c0-17 14-30 30-30l74 0c3 0 6 2 6 6 0 3-3 6-6 6l-74 0c-10 0-18 8-18 18l0 152 98 0c-8-18-12-39-12-61 0-87 71-158 158-158 87 0 158 71 158 158 0 22-4 43-12 61l98 0 0-152c0-10-8-18-18-18l-86 0c-3 0-6-3-6-6 0-4 3-6 6-6l86 0c16 0 30 13 30 30l0 219c0 17-14 31-30 31z m-226-305c-81 0-146 66-146 146 0 81 65 147 146 147 81 0 146-66 146-147 0-80-65-146-146-146z m143 220c-1 0-2-1-2-1-27 51-80 86-141 86-61 0-114-35-141-86 0 0-1 1-2 1l-101 0 0 54c0 11 8 19 18 19l92 0c29 0 37 24 37 36l0 12c0 10 10 25 36 25l122 0c25 0 37-16 37-25l0-12c0-12 7-36 36-36l92 0c10 0 18-8 18-19l0-54z m-283 97c3 0 6 3 6 6l0 12c0 10-8 19-18 19l-49 0c-10 0-18-9-18-19l0-12c0-3 2-6 6-6 3 0 6 3 6 6l0 12c0 4 3 6 6 6l49 0c3 0 6-2 6-6l0-12c0-3 2-6 6-6z m140-61c-60 0-110-49-110-110 0-60 50-109 110-109 61 0 110 49 110 109 0 61-49 110-110 110z m0-207c-54 0-98 44-98 97 0 54 44 98 98 98 54 0 98-44 98-98 0-53-44-97-98-97z"/>
<glyph glyph-name="caution" unicode="&#112;" d="M319 447c-16 28-38 43-62 43-24 0-46-15-62-43l-180-309c-16-29-18-58-4-81 12-22 37-35 68-35l356 0c0 0 0 0 0 0 31 0 56 13 68 34 13 23 12 53-5 81z m172-383c-10-17-31-27-56-27l-356 0c-25 0-46 10-56 27-10 18-9 43 5 66l180 309c13 24 31 36 49 36 18 0 36-12 49-36l180-309c13-24 15-48 5-66z m-234 133c4 0 7 4 7 8l0 146c0 4-3 7-7 7-4 0-7-3-7-7l0-146c0-4 3-8 7-8z m-1-36c-16 0-29-13-29-29 0-16 13-30 29-30 16 0 29 14 29 30 0 16-13 29-29 29z m0-44c-8 0-15 7-15 15 0 8 7 14 15 14 8 0 15-6 15-14 0-8-7-15-15-15z"/>
<glyph glyph-name="chat" unicode="&#113;" d="M435 280c-4 1-7-1-8-4-1-3 1-6 4-8 48-15 69-37 69-73 0-32-29-56-46-68-2-1-3-3-3-5l0-47c-9 4-24 11-38 27-1 1-4 2-6 2-3-1-7-2-10-3-7-2-13-3-19-3-31 0-53 6-76 23-2 2-6 1-8-2-2-2-2-6 1-8 25-18 49-26 83-26 8 0 15 2 22 4 2 1 4 1 6 2 23-24 49-30 50-30 0 0 1 0 1 0 2 0 3 0 4 1 1 1 2 3 2 5l0 52c32 22 49 49 49 76 0 41-25 68-77 85z m-33 6c0 94-85 165-199 165-114 0-203-72-203-165 0-55 39-95 73-119l0-80c0-2 1-4 3-6 1 0 2-1 3-1 1 0 2 1 3 1 2 1 43 20 79 59 15-3 33-6 48-6 116 0 193 61 193 152z m-193-140c-16 0-34 3-49 6-2 1-5 0-6-2-25-28-54-46-69-53l0 74c0 2-1 4-2 5-32 22-71 59-71 110 0 86 84 153 191 153 107 0 187-66 187-153 0-83-73-140-181-140z m-8 165c-13 0-24-11-24-25 0-13 11-24 24-24 14 0 25 11 25 24 0 14-11 25-25 25z m0-37c-7 0-12 6-12 12 0 7 5 13 12 13 7 0 12-6 12-13 0-6-5-12-12-12z m85 37c-13 0-24-11-24-25 0-13 11-24 24-24 14 0 25 11 25 24 0 14-11 25-25 25z m0-37c-6 0-12 6-12 12 0 7 6 13 12 13 7 0 13-6 13-13 0-6-6-12-13-12z m-170 36c-14 0-25-11-25-25 0-13 11-24 25-24 13 0 24 11 24 24 0 14-11 25-24 25z m0-37c-7 0-12 6-12 12 0 7 5 13 12 13 7 0 12-6 12-13 0-6-5-12-12-12z"/>
<glyph glyph-name="circle-compass" unicode="&#114;" d="M256 416c5 0 8 4 8 8l0 24 8 0c4 0 8 4 8 8l0 48c0 4-4 8-8 8l-32 0c-4 0-8-4-8-8l0-48c0-4 4-8 8-8l8 0 0-24c0-4 4-8 8-8z m-8 80l16 0 0-32-16 0z m-172-493c1-1 3-1 4-1 3 0 6 2 7 4l69 131c31-15 65-24 100-24 36 0 70 9 100 24l69-131c1-2 4-4 7-4 1 0 3 0 4 1 4 2 5 7 3 11l-69 131c16 9 31 20 45 34 15 15 15 41 0 56-16 15-42 15-57 0-8-7-16-14-25-19l-37 72c14 11 24 29 24 49 0 35-29 64-64 64-35 0-63-29-63-64 0-20 9-38 24-49l-38-72c-9 5-17 12-25 19-15 15-41 15-56 0-16-15-16-41 0-56 13-14 28-25 44-34l-69-131c-2-4-1-9 3-11z m50 228c7 0 13-2 17-7 30-30 70-47 113-47 43 0 83 17 113 47 9 9 25 9 34 0 10-9 10-25 0-34-39-39-91-61-147-61-55 0-108 22-147 61-9 9-9 25 0 34 5 4 11 7 17 7z m83 106c0 26 21 48 47 48 26 0 48-22 48-48 0-26-22-47-48-47-26 0-47 21-47 47z m21-58c8-3 17-5 26-5 9 0 18 2 26 5l37-71c-19-10-41-15-63-15-22 0-44 5-63 15z"/>
<glyph glyph-name="clipboard" unicode="&#115;" d="M56 0l400 0c14 0 24 10 24 24l0 448c0 14-10 24-24 24l-64 0c-4 0-8-4-8-8 0-4 4-8 8-8l64 0c5 0 8-3 8-8l0-448c0-5-3-8-8-8l-400 0c-5 0-8 3-8 8l0 448c0 5 3 8 8 8l64 0c4 0 8 4 8 8 0 4-4 8-8 8l-64 0c-14 0-24-10-24-24l0-448c0-14 10-24 24-24z m64 432c4 0 8 4 8 8 0 4-4 8-8 8l-32 0c-4 0-8-4-8-8l0-384c0-4 4-8 8-8l336 0c4 0 8 4 8 8l0 384c0 4-4 8-8 8l-32 0c-4 0-8-4-8-8 0-4 4-8 8-8l24 0 0-368-320 0 0 368z m56-32l160 0c19 0 32 13 32 32l0 72c0 4-4 8-8 8l-208 0c-4 0-8-4-8-8l0-72c0-19 13-32 32-32z m-16 96l192 0 0-64c0-11-5-16-16-16l-160 0c-11 0-16 5-16 16z m8-240l176 0c4 0 8 4 8 8 0 4-4 8-8 8l-176 0c-4 0-8-4-8-8 0-4 4-8 8-8z m0 64l176 0c4 0 8 4 8 8 0 4-4 8-8 8l-176 0c-4 0-8-4-8-8 0-4 4-8 8-8z m0-128l176 0c4 0 8 4 8 8 0 4-4 8-8 8l-176 0c-4 0-8-4-8-8 0-4 4-8 8-8z m0-64l176 0c4 0 8 4 8 8 0 4-4 8-8 8l-176 0c-4 0-8-4-8-8 0-4 4-8 8-8z"/>
<glyph glyph-name="clock" unicode="&#116;" d="M256 0c141 0 256 115 256 256 0 141-115 256-256 256-141 0-256-115-256-256 0-141 115-256 256-256z m0 496c132 0 240-108 240-240 0-132-108-240-240-240-132 0-240 108-240 240 0 132 108 240 240 240z m65-332c2-2 4-3 6-3 2 0 4 1 5 3 3 3 3 8 0 11l-76 76 0 112c0 4-4 8-8 8-4 0-8-4-8-8l0-115c0-2 1-4 2-6z m-241 92c0-9-7-16-16-16-9 0-16 7-16 16 0 9 7 16 16 16 9 0 16-7 16-16z m384 0c0-9-7-16-16-16-9 0-16 7-16 16 0 9 7 16 16 16 9 0 16-7 16-16z m-192 192c0-9-7-16-16-16-9 0-16 7-16 16 0 9 7 16 16 16 9 0 16-7 16-16z m0-384c0-9-7-16-16-16-9 0-16 7-16 16 0 9 7 16 16 16 9 0 16-7 16-16z m-128 320c0-9-7-16-16-16-9 0-16 7-16 16 0 9 7 16 16 16 9 0 16-7 16-16z m256-256c0-9-7-16-16-16-9 0-16 7-16 16 0 9 7 16 16 16 9 0 16-7 16-16z m16 256c0-9-7-16-16-16-9 0-16 7-16 16 0 9 7 16 16 16 9 0 16-7 16-16z m-272-256c0-9-7-16-16-16-9 0-16 7-16 16 0 9 7 16 16 16 9 0 16-7 16-16z"/>
<glyph glyph-name="cloud" unicode="&#117;" d="M414 293c-5 80-61 158-164 158-94 0-167-70-170-163-52-16-80-71-80-111 0-62 51-116 110-116l292 0c59 0 110 64 110 116 0 63-51 112-98 116z m-12-220l-292 0c-52 0-98 49-98 104 0 37 33 103 98 103l18 0c3 0 6 3 6 6 0 4-3 7-6 7l-18 0c-6 0-12-1-18-2 5 73 60 148 158 148 105 0 152-82 152-159l0-18c0-3 3-6 6-6 4 0 6 3 6 6l0 18c0 0 0 0 0 0 37-4 86-43 86-103 0-47-45-104-98-104z"/>
<glyph glyph-name="compass" unicode="&#118;" d="M0 256c0-141 115-256 256-256 141 0 256 115 256 256 0 141-115 256-256 256-141 0-256-115-256-256z m256 240c132 0 240-108 240-240 0-132-108-240-240-240-132 0-240 108-240 240 0 132 108 240 240 240z m0-448c115 0 208 93 208 208 0 115-93 208-208 208-115 0-208-93-208-208 0-115 93-208 208-208z m-16 399l0-24c0-5 4-8 8-8 4 0 8 3 8 8l0 25c100 0 183-78 191-176l-24 0c-5 0-8-4-8-8 0-4 3-8 8-8l25 0c0-106-86-192-192-192l0 25c0 5-4 8-8 8-4 0-8-3-8-8l0-24c-98 8-176 91-176 191l25 0c5 0 8 4 8 8 0 4-3 8-8 8l-24 0c8 93 82 167 175 175z m-90-304c2 0 3 1 5 2l90 64c3 0 7-1 11-1 26 0 48 21 48 48 0 4-1 7-1 11l65 91c3 4 2 8-1 11-2 2-7 3-10 1l-92-67c-3 1-6 1-9 1-26 0-48-22-48-48 0-3 0-6 1-9l-65-91c-3-3-2-8 1-10 1-2 3-3 5-3z m74 113c0 18 14 32 32 32 18 0 32-14 32-32 0-18-14-32-32-32-18 0-32 14-32 32z m103 72l-32-44c-3 5-8 9-13 12z m-111-99c3-4 7-9 12-12l-43-31z"/>
<glyph glyph-name="desktop" unicode="&#119;" d="M20 138l229 0 0-20c0-3 3-6 7-6 4 0 7 3 7 6l0 20 229 0c11 0 20 9 20 20l0 288c0 11-9 20-20 20l-472 0c-11 0-20-9-20-20l0-288c0-11 9-20 20-20z m-7 308c0 4 3 7 7 7l472 0c4 0 7-3 7-7l0-288c0-4-3-7-7-7l-472 0c-4 0-7 3-7 7z m33-269l420 0c4 0 7 3 7 7l0 236c0 4-3 7-7 7l-420 0c-4 0-7-3-7-7l0-236c0-4 3-7 7-7z m7 237l406 0 0-224-406 0z m131-316c-15 0-26-11-26-26l0-19c0-4 2-7 6-7l184 0c4 0 6 3 6 7l0 18c0 15-11 27-26 27z m157-27l0-12-170 0 0 13c0 8 5 13 13 13l144 0c8 0 13-6 13-14z"/>
<glyph glyph-name="dial" unicode="&#120;" d="M256 336c-44 0-80-36-80-79 0-44 35-81 79-81 0 0 1 0 1 0 44 0 80 36 80 79 0 44-35 81-80 81z m0-144l0-8-1 8c-35 0-63 29-63 65 0 35 29 63 65 63 35 0 63-29 63-65 0-35-29-63-64-63z m-224 64c0-9-7-16-16-16-9 0-16 7-16 16 0 9 7 16 16 16 9 0 16-7 16-16z m480 0c0-9-7-16-16-16-9 0-16 7-16 16 0 9 7 16 16 16 9 0 16-7 16-16z m-240 240c0-9-7-16-16-16-9 0-16 7-16 16 0 9 7 16 16 16 9 0 16-7 16-16z m0-480c0-9-7-16-16-16-9 0-16 7-16 16 0 9 7 16 16 16 9 0 16-7 16-16z m-176 416c0-9-7-16-16-16-9 0-16 7-16 16 0 9 7 16 16 16 9 0 16-7 16-16z m352-352c0-9-7-16-16-16-9 0-16 7-16 16 0 9 7 16 16 16 9 0 16-7 16-16z m0 352c0-9-7-16-16-16-9 0-16 7-16 16 0 9 7 16 16 16 9 0 16-7 16-16z m-352-352c0-9-7-16-16-16-9 0-16 7-16 16 0 9 7 16 16 16 9 0 16-7 16-16z m288 175l0 121c0 4-4 8-8 8l-120 0c-70 0-127-57-128-127 0-34 13-66 37-91 24-24 56-38 90-38 0 0 1 0 1 0 70 0 127 57 128 127z m-128-111l0-8-1 8c-30 0-58 12-79 34-21 21-32 49-32 79 1 61 51 111 113 111l111 0 0-113c-1-61-51-111-112-111z"/>
<glyph glyph-name="document" unicode="&#121;" d="M88 0l336 0c13 0 24 11 24 24l0 336c0 0 0 0 0 1 0 0 0 0 0 1-1 1-1 2-2 3 0 0 0 0 0 0l-128 144c0 0 0 0 0 0-1 1-2 2-4 3 0 0 0 0-1 0 0 0-1 0-1 0l-224 0c-13 0-24-11-24-24l0-464c0-13 11-24 24-24z m232 483l102-115-94 0c-4 0-8 7-8 12z m-240 5c0 4 4 8 8 8l216 0 0-116c0-13 10-28 24-28l104 0 0-328c0-4-4-8-8-8l-336 0c-4 0-8 4-8 8z m72-200l208 0c4 0 8 4 8 8 0 4-4 8-8 8l-208 0c-4 0-8-4-8-8 0-4 4-8 8-8z m0-64l208 0c4 0 8 4 8 8 0 4-4 8-8 8l-208 0c-4 0-8-4-8-8 0-4 4-8 8-8z m0 128l96 0c4 0 8 4 8 8 0 4-4 8-8 8l-96 0c-4 0-8-4-8-8 0-4 4-8 8-8z m0-192l208 0c4 0 8 4 8 8 0 4-4 8-8 8l-208 0c-4 0-8-4-8-8 0-4 4-8 8-8z m0-64l208 0c4 0 8 4 8 8 0 4-4 8-8 8l-208 0c-4 0-8-4-8-8 0-4 4-8 8-8z"/>
<glyph glyph-name="documents" unicode="&#122;" d="M23 75l271 0c12 0 22 10 22 23l0 286c0 0 0 1 0 1 0 0 0 1 0 1-1 1-1 2-2 3l-105 106c-1 1-3 1-4 2 0 0 0 0-1 0 0 0 0 0-1 0l-180 0c-13 0-23-10-23-23l0-376c0-13 10-23 23-23z m188 396l80-79-73 0c-4 0-7 3-7 7z m-196 3c0 5 3 8 8 8l173 0 0-83c0-12 10-23 22-23l83 0 0-278c0-4-3-8-7-8l-271 0c-4 0-8 4-8 8z m53-158l180 0c5 0 8 4 8 8 0 4-3 7-8 7l-180 0c-4 0-8-3-8-7 0-4 4-8 8-8z m0-60l180 0c5 0 8 3 8 8 0 4-3 7-8 7l-180 0c-4 0-8-3-8-7 0-5 4-8 8-8z m0 120l75 0c4 0 8 4 8 8 0 4-4 8-8 8l-75 0c-4 0-8-4-8-8 0-4 4-8 8-8z m0-180l180 0c5 0 8 3 8 7 0 4-3 8-8 8l-180 0c-4 0-8-4-8-8 0-4 4-7 8-7z m0-60l180 0c5 0 8 3 8 7 0 4-3 8-8 8l-180 0c-4 0-8-4-8-8 0-4 4-7 8-7z m256 286l68 0 0-83c0-13 10-23 22-23l83 0 0-278c0-5-3-8-8-8l-270 0c-5 0-8 3-8 8l0 15c0 4-4 7-8 7-4 0-7-3-7-7l0-15c0-13 10-23 23-23l270 0c13 0 23 10 23 23l0 286c0 0 0 0 0 1 0 0 0 0 0 1-1 1-1 2-2 3l-106 105c-1 1-2 2-3 2 0 0-1 0-1 1 0 0-1 0-1 0l-75 0c-4 0-8-4-8-8 0-4 4-7 8-7z m90-91c-4 0-7 4-7 8l0 72 79-80z m-60-75l90 0c4 0 8 3 8 8 0 4-4 7-8 7l-90 0c-4 0-8-3-8-7 0-5 4-8 8-8z m0-60l90 0c4 0 8 3 8 7 0 4-4 8-8 8l-90 0c-4 0-8-4-8-8 0-4 4-7 8-7z m0-60l90 0c4 0 8 3 8 7 0 4-4 8-8 8l-90 0c-4 0-8-4-8-8 0-4 4-7 8-7z m0-61l90 0c4 0 8 4 8 8 0 4-4 7-8 7l-90 0c-4 0-8-3-8-7 0-4 4-8 8-8z"/>
<glyph glyph-name="downarrows10" unicode="&#65;" d="M377 290l-114-114c-3-3-6-4-10-4-3 0-6 1-9 4l-109 108c-5 6-5 14 0 19 6 6 14 6 19 0l99-99 105 105c5 5 13 5 19 0 5-5 5-14 0-19z m135-34c0-141-115-256-256-256-141 0-256 115-256 256 0 141 115 256 256 256 141 0 256-115 256-256z m-27 0c0 127-102 229-229 229-127 0-229-102-229-229 0-127 102-229 229-229 127 0 229 102 229 229z"/>
<glyph glyph-name="download" unicode="&#66;" d="M414 293c-5 80-61 158-164 158-13 0-25-1-37-4-3 0-5-3-5-7 1-3 4-5 8-5 11 3 22 4 34 4 105 0 152-82 152-159l0-18c0-3 3-6 6-6 4 0 6 3 6 6l0 18c0 0 0 1 0 1 38-4 86-36 86-104 0-58-43-104-98-104l-292 0c-49 0-98 36-98 104 0 50 31 103 98 103l18 0c3 0 6 3 6 6 0 4-3 7-6 7l-18 0 0 24c0 45 28 74 73 74 41 0 73-33 73-74l0-158-51 47c-2 2-6 2-8-1-3-2-2-6 0-8l55-51c4-4 7-6 10-6 3 0 6 2 10 5l55 52c3 2 3 6 1 8-3 3-7 3-9 1l-51-47 0 158c0 48-37 86-85 86-52 0-85-34-85-86l0-25c-65-6-98-61-98-115 0-56 38-116 110-116l292 0c62 0 110 51 110 116 0 77-56 113-98 116z"/>
<glyph glyph-name="dribbble" unicode="&#67;" d="M256 513c-141 0-257-116-257-257 0-141 116-257 257-257 141 0 257 116 257 257 0 141-116 257-257 257z m0-496c-132 0-239 107-239 239 0 132 107 239 239 239 132 0 239-107 239-239 0-132-107-239-239-239z m94 327c-25 26-58 41-94 41-17 0-33-4-49-10-44-18-74-59-79-106 0-4-1-9-1-13 0-39 18-75 48-100 23-18 52-29 81-29 19 0 37 4 54 12 34 16 60 47 70 84 0 0 0 0 0 0 3 11 5 22 5 33 0 33-13 64-35 88z m15-109c-2 1-5 1-8 1-4 1-7 2-11 2-5 1-9 1-13 1-4 1-7 1-10 1-1 0-3 0-4 0-5 0-11 0-16-1-1 0-2 0-3 0-4 0-8-1-13-2-1 2-1 4-2 6-3 7-6 15-9 22-1 2-2 4-3 6 2 0 4 1 5 2 2 1 4 1 5 2 4 2 7 3 10 5 1 1 2 1 3 2 5 2 9 5 12 7 1 1 2 2 3 2 3 2 5 4 8 6 1 1 2 2 3 3 2 2 4 4 6 6 1 1 2 2 3 2 2 3 4 5 6 7 0 1 1 1 1 2 2 2 4 5 6 7 15-19 23-43 23-68 0-7 0-14-2-21z m-109 132c29 0 56-10 76-30 0 0 0-1 0-1-1-1-2-2-2-2-1-2-3-4-4-5-1-1-2-2-2-3-2-2-3-3-5-5-1-1-2-2-3-3-1-1-3-3-5-5-1-1-2-1-3-2-3-3-6-5-9-7 0-1-1-1-1-1-3-2-6-4-10-6-1-1-3-2-4-2-3-2-5-3-8-5-2 0-4-1-5-2-2 0-3-1-5-2 0 1-1 2-1 3-3 7-7 14-10 20 0 0-1 1-1 1-3 6-6 12-9 17-1 2-2 3-2 4-3 6-6 11-9 15-1 2-2 3-2 4-3 4-5 8-8 11 0 1 0 1 0 2 10 3 21 4 32 4z m-49-11c0 0 1 0 1 0 2-4 5-8 8-13 0-1 1-2 2-3 3-5 6-10 9-15 0-1 1-2 1-2 3-6 6-11 9-17 1-1 1-2 2-3 3-7 7-13 10-20 0-1 0-1 1-2-6-1-11-3-17-4 0 0-1 0-2 0-17-4-36-5-56-4-2 0-3 0-5 0-8 1-16 2-24 3 7 35 29 65 61 80z m-62-100c0 1 0 2 0 2 2 0 4 0 6 0 6-1 13-1 19-2 3 0 7 0 10 0 3 0 5 0 7 0 0 0 0 0 0 0 5 0 9 0 13 0 2 0 4 0 6 0 8 1 16 2 24 3 2 0 4 1 6 1 6 1 12 3 17 4 2 1 3 1 4 1 1-2 2-4 2-5 3-7 6-14 9-21 1-2 1-4 2-5-2-1-3-2-5-2-2-1-4-1-6-2-4-2-7-3-11-4-1-1-3-2-5-3-4-2-8-4-12-6 0 0-1-1-2-1-5-3-9-6-13-8-1-1-2-2-4-3-3-2-5-4-8-6-1-2-3-3-4-4-2-2-4-4-7-6-1-1-2-2-3-3-2-2-4-4-6-6-1-1-2-2-3-4-1 0-1-1-2-1-22 21-34 50-34 81z m48-92c0 1 0 1 1 1 1 1 2 2 3 3 1 2 3 4 5 6 1 1 2 2 3 3 2 2 4 3 6 5 1 1 3 2 4 3 2 2 5 4 7 6 1 1 2 2 4 3 3 2 6 4 10 6 0 0 1 1 2 1 4 3 8 5 13 7 1 1 2 1 4 2 3 1 6 3 10 4 2 0 4 1 5 2 2 0 4 1 6 1 4-10 7-20 10-30 1-1 1-1 1-2 3-11 6-22 9-33-34-13-73-8-103 12z m119-4c-3 10-6 20-8 30-1 0-1 0-1 1-3 10-6 20-10 30 3 0 5 1 7 1 2 0 4 0 6 0 6 1 12 1 18 1 0 0 1 0 1 0 7 0 14-1 21-2 1 0 3 0 5-1 3 0 7-1 10-2-9-24-26-45-49-58z"/>
<glyph glyph-name="edit" unicode="&#68;" d="M24 0l464 0c13 0 24 11 24 24l0 464c0 13-11 24-24 24l-464 0c-13 0-24-11-24-24l0-464c0-13 11-24 24-24z m-8 488c0 4 4 8 8 8l464 0c4 0 8-4 8-8l0-464c0-4-4-8-8-8l-464 0c-4 0-8 4-8 8z m48-432c1 0 2 0 2 1l160 47c2 1 3 1 4 2l161 164c1 0 1 0 1 1l58 58c10 10 10 26 0 36l-83 83c-10 10-26 10-36 0l-59-59c-1-1-1-1-1-2l-162-162c-1 0-2-2-2-3l-51-155c-1-3 0-6 2-8 2-2 4-3 6-3z m214 316l16-17-136-137-28 6z m-110-167l138 139 39-39-140-137-37 0z m206 70l-148-149-9 32 139 135z m-254-65l32-7 0-43c0-4 4-8 8-8l42 0 10-35-136-41z m223 227c3 4 9 4 12 0l84-84c4-3 4-9 0-12l-54-54-96 96z"/>
<glyph glyph-name="envelope" unicode="&#69;" d="M270 466c-8 7-20 7-28 0l-239-144c-2-1-3-3-3-6l0-254c0-12 10-22 21-22l470 0c11 0 21 10 21 22l0 254c0 3-1 5-3 6z m-21-11c1 0 1 0 2 1 1 1 3 2 5 2 2 0 4-1 5-2 1-1 1-1 2-1l232-140-168-100c-4-2-5-6-3-10 2-2 4-3 6-3 1 0 2 0 4 1l165 98 0-239-229 152c-7 6-21 6-28 0l-229-152 0 239 165-98c2-1 3-1 4-1 2 0 4 1 6 3 2 4 1 8-3 10l-168 100z m237-401l-460 0 224 149c2 2 10 2 12 0z m-398 242l336 0c4 0 7 3 7 7 0 4-3 7-7 7l-336 0c-4 0-7-3-7-7 0-4 3-7 7-7z"/>
<glyph glyph-name="expand" unicode="&#70;" d="M512 24l0 464c0 13-11 24-24 24l-464 0c-13 0-24-11-24-24l0-144c0-4 4-8 8-8 4 0 8 4 8 8l0 144c0 4 4 8 8 8l464 0c4 0 8-4 8-8l0-464c0-4-4-8-8-8l-144 0c-4 0-8-4-8-8 0-4 4-8 8-8l144 0c13 0 24 11 24 24z m-488 280c-13 0-24-11-24-24l0-256c0-13 11-24 24-24l256 0c13 0 24 11 24 24l0 269 112 112 0-109c0-4 4-8 8-8 4 0 8 4 8 8l0 128c0 4-4 8-8 8l-128 0c-4 0-8-4-8-8 0-4 4-8 8-8l109 0-112-112z m264-280c0-4-4-8-8-8l-256 0c-4 0-8 4-8 8l0 256c0 4 4 8 8 8l264 0z"/>
<glyph glyph-name="facebook" unicode="&#71;" d="M256 513c-141 0-257-116-257-257 0-141 116-257 257-257 141 0 257 116 257 257 0 141-116 257-257 257z m0-496c-132 0-239 107-239 239 0 132 107 239 239 239 132 0 239-107 239-239 0-132-107-239-239-239z m56 383l-43 0c-54 1-61-33-61-70l0-26-24 0c-5 1-9-3-8-8l0-48c-1-5 3-9 8-8l24 0 0-120c0-5 3-9 8-8l49 0c5-1 8 3 7 8l0 120 40 0c5-1 9 3 8 8l0 48c1 5-3 9-8 8l-40 0 0 24c2 10 2 9 11 8l29 0c2 0 4 0 6 2 2 1 3 4 2 6l0 48c1 5-3 9-8 8z m-9-47l-20 1c-24 0-27-14-27-28l0-30c0-2 1-4 3-6 1-2 4-3 6-3l39 0 0-30-39 0c-5 0-9-4-9-9l0-120-32 0 0 120c0 5-3 9-8 9l-24 0 0 30 24 0c2 0 4 1 6 3 2 2 2 4 2 6l0 34c0 36 7 53 45 53l34 0 0-30z"/>
<glyph glyph-name="flag" unicode="&#72;" d="M248 496l-176 0c-4 0-8-4-8-8l0-240c0-4 4-8 8-8l176 0c4 0 24-1 24-24 0-4 4-8 8-8 4 0 8 4 8 8l0 240c0 14-9 40-40 40z m24-247c-8 5-17 7-24 7l-168 0 0 224 168 0c22 0 24-22 24-24z m181-73l-221 0c0 0-11 0-18 7-4 4-7 9-7 17 0 4-3 8-8 8-4 0-8-4-8-8 0-12 4-22 11-29 11-10 27-11 30-11 0 0 221 0 221 0 6 0 12 3 15 7 5 6 5 14 3 19-9 29-57 94-70 112 13 19 61 95 70 124 2 5 2 13-3 19-3 4-9 7-15 7l-140 0c-5 0-8-4-8-8 0-4 3-8 8-8l140 0c2 0 2 0 2-1 1-1 1-3 1-4-10-31-71-124-71-125-2-3-2-7 0-10 1 0 61-80 71-111 0-1 0-3-1-4 0-1 0-1-2-1z m-405-168l0 496c0 4-4 8-8 8-4 0-8-4-8-8l0-496c0-4 4-8 8-8 4 0 8 4 8 8z"/>
<glyph glyph-name="focus" unicode="&#73;" d="M104 451l-86 0c-10 0-18-8-18-18l0-73c0-4 3-6 6-6 3 0 6 2 6 6l0 73c0 3 3 6 6 6l86 0c3 0 6 3 6 6 0 3-3 6-6 6z m390 0l-86 0c-3 0-6-3-6-6 0-3 3-6 6-6l86 0c3 0 6-3 6-6l0-73c0-4 3-6 6-6 3 0 6 2 6 6l0 73c0 10-8 18-18 18z m12-293c-3 0-6-2-6-6l0-73c0-3-3-6-6-6l-86 0c-3 0-6-3-6-6 0-3 3-6 6-6l86 0c10 0 18 8 18 18l0 73c0 4-3 6-6 6z m-500 0c-3 0-6-2-6-6l0-73c0-10 8-18 18-18l86 0c3 0 6 3 6 6 0 3-3 6-6 6l-86 0c-3 0-6 3-6 6l0 73c0 4-3 6-6 6z m280 61c4 0 7 3 7 7l0 60c0 4-3 7-7 7l-60 0c-4 0-7-3-7-7l0-60c0-4 3-7 7-7z m-54 61l48 0 0-48-48 0z"/>
<glyph glyph-name="gears" unicode="&#74;" d="M45 186c2 0 5-3 6-5l4-11c1-2 1-5 0-7l-17-28c-4-6-3-15 2-20l14-15c5-4 14-5 20-1l28 17c1 1 5 1 8 0l10-4c2-1 5-4 5-6l8-32c2-7 8-12 15-13 0 0 4 0 10 0 7 0 11 0 11 0 7 1 13 6 15 13l8 32c0 2 3 5 5 6l11 4c1 1 6 1 7 0l28-17c3-2 5-3 9-3 4 0 8 2 11 5l14 14c5 5 6 14 2 20l-17 28c-1 2-1 5 0 8l4 10c1 2 4 5 6 5l32 8c6 2 12 8 13 15 0 0 0 4 0 10 0 7 0 11 0 11-1 7-7 13-13 15l-32 8c-2 0-5 3-6 5l-4 10c-1 2-1 6 0 8l17 28c4 6 3 14-2 20l-14 14c-5 5-14 6-20 2l-28-17c-1-1-5-1-8 0l-10 4c-2 1-5 4-5 6l-8 32c-2 6-8 12-15 13 0 0-4 0-11 0-6 0-10 0-10 0-7-1-13-7-15-13l-8-32c0-2-3-5-5-6l-11-4c-1-1-6-1-7 0l-28 17c-6 4-15 3-20-2l-14-14c-5-6-6-14-2-20l17-28c1-2 1-6 0-8l-4-10c-1-2-4-5-6-5l-32-8c-6-2-12-8-13-15 0 0 0-4 0-11 0-6 0-10 0-10 1-7 7-13 13-15z m-33 33c0 6 1 10 1 10 0 2 2 4 3 4l32 8c6 1 12 7 14 12l4 10c3 6 3 14-1 20l-17 27c-1 2 0 4 0 5l14 14c1 1 4 1 6 1l27-17c6-4 15-4 19-1l10 4c6 2 12 8 13 14l8 32c0 1 2 3 4 3 0 0 4 1 9 1 6 0 10-1 10-1 2 0 4-2 4-3l8-32c1-6 7-12 13-14l9-4c6-3 14-3 20 1l27 17c2 0 5 0 5 0l14-14c1-2 2-4 1-6l-17-27c-4-6-4-14-1-20l4-9c2-6 8-12 14-13l32-8c1 0 3-2 3-4 0 0 1-4 1-10 0-5-1-9-1-9 0-2-2-4-3-4l-32-8c-6-1-12-7-14-13l-4-9c-3-6-3-14 1-20l17-28c1-1 0-4 0-4l-14-14c-1-1-2-1-3-1-1 0-2 0-3 0l-27 17c-6 3-15 4-20 1l-9-4c-6-2-12-8-13-14l-8-32c0-2-2-3-4-4 0 0-4 0-10 0-5 0-9 0-9 0-2 1-4 2-4 4l-8 32c-1 6-7 12-13 14l-9 4c-3 1-6 2-9 2-4 0-8-1-11-3l-27-17c-2-1-5 0-5 0l-14 14c-1 1-2 4-1 5l17 28c4 6 4 14 1 19l-4 10c-2 6-8 12-14 13l-32 8c-1 0-3 2-3 4 0 0-1 4-1 9z m146-67c37 0 68 30 68 67 0 37-31 67-68 67-36 0-67-30-67-67 0-37 31-67 67-67z m0 122c31 0 55-24 55-55 0-30-24-54-55-54-30 0-54 24-54 54 0 31 24 55 54 55z m177 112c-1 0-2-1-3-1l-23 0c-5 0-11-4-13-9 0 0-1-3-2-7-1-5-1-8-1-8-1-5 2-11 7-14l20-10c1-1 2-3 2-4l1-8c0 0 0-2-1-3l-16-16c-4-4-5-10-3-16l8-12c3-4 10-7 15-5l22 7c1 0 2-1 3-1l6-5c1 0 2-2 2-3l0-23c0-5 4-11 9-13 0 0 3-1 7-2 4-1 7-1 7-1 1 0 2 0 2 0 5 0 10 3 13 7l10 20c0 1 2 2 3 2l8 1c2 0 3-1 4-1l15-16c4-4 11-6 16-2l13 7c4 3 6 9 5 15l-7 21c0 1 0 3 1 4l5 6c0 1 2 2 3 2l22 0c6 0 11 4 13 9 0 0 1 3 2 7 1 5 2 7 2 7 1 6-2 12-7 15l-20 10c-1 1-2 2-2 3l-1 8c0 1 0 3 1 4l16 15c4 4 5 11 2 16l-7 13c-3 4-10 6-15 5l-22-7c-2 0-3 0-4 1l-6 5c-1 0-1 2-1 3l0 22c0 6-4 12-9 13 0 0-3 1-8 2-4 2-7 2-7 2 0 0-1 0-2 0-5 0-10-3-12-7l-11-20c0-1-2-2-3-2l-8-1c-1 0-3 0-3 1l-16 16c-4 4-10 5-16 2l-12-7c-5-3-7-10-5-15l7-22c0 0-1-2-1-3z m10-7l4 6c3 4 5 10 3 15l-7 21c0 1 1 2 1 2l11 7 2-1 15-16c3-3 8-4 12-4 1 0 2 0 3 0l7 1c5 0 10 4 12 8l11 20c0 1 1 1 1 1 0 0 3 0 6-1 4-1 7-2 7-2 0 0 1-1 1-1l-1-23c0-5 3-11 7-13l6-5c4-3 10-4 15-3l22 7c0 0 1 0 1 0l6-12c1 0 0-1 0-1l-16-16c-3-3-5-9-4-14l1-7c0-5 4-10 8-13l20-10c1 0 1-1 1-2 0 0-1-2-1-6-1-3-2-6-2-6 0 0-1-1-2-1l-22 0c-5 0-11-3-13-7l-5-5c-3-4-4-10-3-15l7-22c0 0 0-1 0-1l-12-7-1 0-16 16c-3 3-7 5-12 5-1 0-1 0-2 0l-7-1c-5-1-10-4-13-9l-10-20c0 0-1 0-2 0 0 0-2 0-6 1-4 1-6 2-6 2 0 0-1 1-1 1l0 23c0 5-3 10-7 13l-5 4c-3 2-7 4-11 4-2 0-3 0-4-1l-22-7c0 0-1 1-1 1l-7 11c0 1 0 1 0 2l16 15c4 4 6 10 5 15l-1 7c-1 5-4 10-9 12l-20 11c0 0 0 1 0 1 0 0 0 3 1 7 1 3 2 6 2 6 0 0 1 1 1 1l23-1c5 0 10 3 13 7z m57-74c20 0 37 16 37 36 0 20-17 37-37 37-20 0-36-17-36-37 0-20 16-36 36-36z m0 61c14 0 25-11 25-25 0-13-11-24-25-24-13 0-24 11-24 24 0 14 11 25 24 25z"/>
<glyph glyph-name="genius" unicode="&#75;" d="M25 128c13-22 41-33 82-33 0 0 0 0 0 0 18 0 38 2 59 7 20-62 53-102 90-102 37 0 70 40 90 102 21-5 41-7 59-7 41 0 69 11 82 33 16 28 2 76-48 128 50 52 64 100 48 128-13 22-41 33-82 33-18 0-38-2-59-7-20 62-53 102-90 102-37 0-70-40-90-102-21 5-41 7-59 7-41 0-69-11-82-33-16-28-2-76 48-128-50-52-64-100-48-128z m231-112c-29 0-56 35-74 89 24 6 49 15 74 26 25-11 50-20 74-26-18-54-45-89-74-89z m-96 240c0 19 1 37 3 54 14 10 29 20 45 29 16 9 32 17 48 25 16-8 32-16 48-25 16-9 31-19 45-29 2-17 3-35 3-54 0-19-1-37-3-54-14-10-29-20-45-29-16-9-32-17-48-25-16 8-32 16-48 25-16 9-31 19-45 29-2 17-3 35-3 54z m-14-42c-19 14-35 28-50 42 15 14 31 28 50 42-1-14-2-28-2-42 0-14 1-28 2-42z m19 117c3 22 7 42 12 60 19-4 39-11 59-19-12-6-24-12-36-19-12-7-24-14-35-22z m111 41c20 8 40 15 59 19 5-18 9-38 12-60-11 8-23 15-35 22-12 7-24 13-36 19z m90-74c19-14 35-28 50-42-15-14-31-28-50-42 1 14 2 28 2 42 0 14-1 28-2 42z m-19-117c-3-22-7-42-12-60-19 4-39 11-59 19 12 6 24 12 36 19 12 7 24 14 35 22z m-147-22c12-7 24-13 36-19-20-8-40-15-59-19-5 18-9 38-12 60 11-8 23-15 35-22z m273-23c-9-16-33-25-68-25-17 0-35 2-55 6 7 23 12 48 15 75 24 18 45 35 63 52 40-43 59-84 45-108z m-68 265c35 0 59-9 68-25 14-24-5-65-45-108-18 17-39 34-64 52-2 27-7 52-14 75 20 4 38 6 55 6z m-149 95c29 0 56-35 74-89-24-6-49-15-74-26-25 11-50 20-74 26 18 54 45 89 74 89z m-217-120c9 16 33 25 68 25 17 0 35-2 55-6-7-23-12-48-15-75-24-18-45-35-63-52-40 43-59 84-45 108z m45-132c18-17 39-34 63-52 3-27 8-52 15-75-20-4-38-6-55-6 0 0 0 0 0 0-35 0-59 9-68 25-14 24 5 65 45 108z m172-28c22 0 40 18 40 40 0 22-18 40-40 40-22 0-40-18-40-40 0-22 18-40 40-40z m0 64c13 0 24-11 24-24 0-13-11-24-24-24-13 0-24 11-24 24 0 13 11 24 24 24z"/>
<glyph glyph-name="gift" unicode="&#76;" d="M18 244c-3 0-6-3-6-6l0-147c0-10 8-18 18-18l122 0c4 0 6 3 6 6 0 4-2 6-6 6l-122 0c-3 0-6 3-6 6l0 147c0 3-2 6-6 6z m476 0c-4 0-6-3-6-6l0-147c0-3-3-6-6-6l-256 0c-4 0-7-2-7-6 0-3 3-6 7-6l256 0c10 0 18 8 18 18l0 147c0 3-3 6-6 6z m-275 189c0-4 3-6 7-6l256 0c3 0 6-3 6-6l0-110c0-3 2-6 6-6 3 0 6 3 6 6l0 110c0 10-8 18-18 18l-256 0c-4 0-7-3-7-6z m-189 6c-10 0-18-8-18-18l0-110c0-3 3-6 6-6 4 0 6 3 6 6l0 110c0 3 3 6 6 6l122 0c4 0 6 2 6 6 0 3-2 6-6 6z m476-158l-249 0c5 2 9 5 12 8 19 18 19 48 0 66-18 18-49 18-67 0-2-3-5-7-7-11l0 101c0 3-3 6-6 6-3 0-6-3-6-6l0-161c-21 8-57 26-65 41-5 10-6 21-2 31 3 11 11 19 21 24 3 2 4 5 2 8-1 3-5 5-8 3-13-6-22-17-27-31-4-13-3-28 3-40 8-15 32-30 52-39l-153 0c-3 0-6-3-6-6 0-4 3-6 6-6l114 0c-5-2-9-5-12-8-18-18-18-48 0-67 9-9 21-13 34-13 12 0 24 4 33 13 3 3 6 8 8 13l0-140c0-3 3-6 6-6 3 0 6 3 6 6l0 199c21-9 57-26 64-41 5-10 6-21 3-32-4-10-11-19-21-23-3-2-4-6-3-9 1-2 3-3 6-3 0 0 1 0 2 1 13 6 23 17 27 30 5 14 4 28-3 41-7 15-31 29-51 39l287 0c3 0 6 2 6 6 0 3-3 6-6 6z m-295 66c7 6 15 10 25 10 9 0 18-4 25-10 13-14 13-36 0-50-11-10-47-15-66-16 2 23 7 56 16 66z m-45-144c-13-13-36-13-49 0-14 14-14 36 0 50 10 10 46 14 65 15-1-22-6-55-16-65z"/>
<glyph glyph-name="global" unicode="&#77;" d="M1 245c5-136 117-245 255-245 138 0 250 109 255 245 1 1 1 2 1 3 0 1 0 1 0 2 0 2 0 4 0 6 0 141-115 256-256 256-141 0-256-115-256-256 0-2 0-4 0-6 0-1 0-1 0-2 0-1 0-2 1-3z m398-97c-21 9-44 16-68 20 3 24 4 48 5 72l79 0c-1-33-7-64-16-92z m32 92l64 0c-3-45-18-86-42-121-13 8-26 16-40 23 11 30 17 63 18 98z m-233-85c19 3 38 5 58 5 20 0 39-2 58-5-11-85-36-139-58-139-22 0-47 54-58 139z m25-134c-44 14-82 56-104 112 20 9 41 15 64 20 7-56 20-105 40-132z m-27 320c20-3 40-5 60-5 20 0 40 2 60 5 2-26 4-55 4-85l-128 0c0 30 2 59 4 85z m124-101c-1-24-2-47-4-69-20 3-40 5-60 5-20 0-40-2-60-5-2 26-3 49-4 69z m9-87c23-5 44-11 64-20-22-56-59-98-104-112 20 27 33 76 40 132z m7 103c0 29-2 59-5 88 24 4 47 11 68 20 11-33 17-69 17-108z m-7 103c-7 56-20 105-40 132 44-14 82-56 104-112-20-9-41-15-64-20z m-15-2c-19-3-38-5-58-5-20 0-39 2-58 5 11 85 36 139 58 139 22 0 47-54 58-139z m-131 2c-23 5-44 11-64 20 22 56 59 98 104 112-20-27-33-76-40-132z m-2-15c-3-29-5-59-5-88l-80 0c0 39 6 75 17 108 21-9 44-16 68-20z m-5-104c1-24 2-48 5-72-24-4-47-11-68-20-9 28-15 59-16 92z m-77-98c-14-7-27-15-40-23-24 35-39 76-42 121l64 0c1-35 7-68 18-98z m-30-36c11 8 23 15 35 21 16-40 40-73 67-95-40 15-75 41-102 74z m272-74c28 22 51 55 67 95 12-6 24-13 35-21-27-33-62-59-102-74z m91 224c0 41-7 80-19 114 14 7 27 15 40 23 27-39 43-86 43-137z m11 150c-11-8-23-15-35-21-16 40-39 73-67 95 40-15 75-41 102-74z m-272 74c-28-22-51-55-67-95-12 6-24 13-35 21 27 33 62 59 102 74z m-112-87c13-8 26-16 40-23-12-34-19-73-19-114l-64 0c0 51 16 98 43 137z"/>
<glyph glyph-name="globe" unicode="&#78;" d="M273 160c92 0 168 75 168 168 0 93-76 168-168 168-93 0-168-75-168-168 0-93 75-168 168-168z m0 320c84 0 152-68 152-152 0-84-68-152-152-152-84 0-152 68-152 152 0 84 68 152 152 152z m-72-416c-18 0-32-14-32-32l0-24c0-4 3-8 8-8l192 0c4 0 8 4 8 8l0 23c0 18-14 33-32 33z m160-33l0-15-176 0 0 16c0 9 6 16 16 16l144 0c9 0 16-7 16-17z m-96 81c0 0 0 0 0 0l0-26c0-4 3-8 8-8 4 0 8 4 8 8l0 26c0 0 0 0 0 0 51 2 100 22 138 58l19-19c3-3 8-3 11 0 3 3 3 8 0 11l-24 25c-3 3-8 3-12 0-37-38-88-59-141-59-53 0-104 21-141 59-38 37-59 88-59 141 0 53 21 104 59 141 3 4 3 9 0 12l-25 24c-3 3-8 3-11 0-3-3-3-8 0-11l19-19c-38-40-58-92-58-147 0-58 22-112 63-153 39-39 91-61 146-63z"/>
<glyph glyph-name="googleplus" unicode="&#79;" d="M256 513c-141 0-257-116-257-257 0-141 116-257 257-257 141 0 257 116 257 257 0 141-116 257-257 257z m0-496c-132 0-239 107-239 239 0 132 107 239 239 239 132 0 239-107 239-239 0-132-107-239-239-239z m33 342c0 5-4 9-9 9l-68 0c-1 0-1-1-1-1-1 0-2 1-3 1-36 0-65-25-65-55 0-31 29-56 65-56 5 0 10 1 14 2-1-5-2-10-1-16 1-6 3-11 6-16-6 1-12 2-18 2-44 0-80-27-80-59 0-33 36-60 80-60 44 0 80 27 80 60 0 16-10 31-25 42-1 2-2 3-3 4-14 9-21 19-23 29-1 11 5 19 6 20 0 1 1 2 1 3 17 10 28 26 28 45 0 14-7 28-18 37l25 0c5 0 9 4 9 9z m-80-231c-35 0-63 18-63 42 0 23 28 41 63 41 34 0 62-18 62-41 0-24-28-42-62-42z m-1 147c-26 0-47 17-47 37 0 21 21 38 47 38 26 0 47-17 47-38 0-20-21-37-47-37z m197 45l-37 0 0 38c0 5-4 9-9 9-5 0-9-4-7-7l0-40-39 0c-5 1-9-3-9-8 0-5 4-9 9-8l39 0 0-38c0-5 2-9 7-9 5 0 9 4 9 9l0 38 37 0c5-1 9 3 9 8 0 5-4 9-9 8z"/>
<glyph glyph-name="grid" unicode="&#80;" d="M464 336c4 0 8 4 8 8 0 4-4 8-8 8l-120 0 0 120c0 4-4 8-8 8-4 0-8-4-8-8l0-120-144 0 0 120c0 4-4 8-8 8-4 0-8-4-8-8l0-120-120 0c-4 0-8-4-8-8 0-4 4-8 8-8l120 0 0-144-120 0c-4 0-8-4-8-8 0-4 4-8 8-8l120 0 0-136c0-4 4-8 8-8 4 0 8 4 8 8l0 136 144 0 0-136c0-4 4-8 8-8 4 0 8 4 8 8l0 136 120 0c4 0 8 4 8 8 0 4-4 8-8 8l-120 0 0 144z m-136-144l-144 0 0 144 144 0z m176-168l0 464c0 13-11 24-24 24l-448 0c-13 0-24-11-24-24l0-464c0-13 11-24 24-24l448 0c13 0 24 11 24 24z m-480 0l0 464c0 4 4 8 8 8l448 0c4 0 8-4 8-8l0-464c0-4-4-8-8-8l-448 0c-4 0-8 4-8 8z"/>
<glyph glyph-name="happy" unicode="&#81;" d="M256 513c-141 0-257-116-257-257 0-141 116-257 257-257 141 0 257 116 257 257 0 141-116 257-257 257z m0-496c-132 0-239 107-239 239 0 132 107 239 239 239 132 0 239-107 239-239 0-132-107-239-239-239z m-88 231c18 0 32 14 32 32 0 18-14 32-32 32-18 0-32-14-32-32 0-18 14-32 32-32z m0 48c9 0 16-7 16-16 0-9-7-16-16-16-9 0-16 7-16 16 0 9 7 16 16 16z m176-48c18 0 32 14 32 32 0 18-14 32-32 32-18 0-32-14-32-32 0-18 14-32 32-32z m0 48c9 0 16-7 16-16 0-9-7-16-16-16-9 0-16 7-16 16 0 9 7 16 16 16z m21-137c-27-30-65-46-105-46-41 0-80 17-107 47-3 4-8 4-12 1-3-4-4-9 0-12 30-34 73-54 119-54 44 0 87 19 118 52 3 4 3 9-1 12-3 3-9 3-12 0z"/>
<glyph glyph-name="hazardous" unicode="&#82;" d="M256-1c141 0 257 116 257 257 0 141-116 257-257 257-141 0-257-116-257-257 0-141 116-257 257-257z m0 496c132 0 239-107 239-239 0-132-107-239-239-239-132 0-239 107-239 239 0 132 107 239 239 239z m-96-406c1 0 3-1 4-1 3 0 6 2 7 4l85 140 85-140c1-2 4-4 7-4 1 0 3 1 4 1 62 36 97 93 97 159 0 5-4 9-9 8l-170 0 85 155c3 4 1 9-3 12-58 34-134 34-192 0-4-3-6-8-3-12l85-155-170 0c-5 1-9-3-9-8 0-66 35-123 97-159z m271 151c-2-54-31-100-80-131l-80 131z m-95 172l-80-146-80 146c49 26 111 26 160 0z m-95-172l-80-131c-49 31-78 77-80 131z"/>
<glyph glyph-name="heart" unicode="&#83;" d="M374 477c-35 0-68-12-93-36-10-8-18-18-25-29-7 11-15 21-25 30-25 23-58 35-93 35-76 0-138-62-138-138 0-51 16-92 54-136 54-64 192-161 198-165 1-1 3-1 4-1 1 0 3 0 4 1 6 4 144 101 198 165 38 44 54 85 54 136 0 76-62 138-138 138z m74-265c-48-56-169-143-192-160-23 17-144 104-192 160-35 41-50 79-50 127 0 69 56 125 124 125 31 0 61-12 84-33 11-10 21-23 28-37 2-4 10-4 12 0 7 14 17 27 28 37 23 21 53 33 84 33 68 0 124-56 124-125 0-48-15-86-50-127z"/>
<glyph glyph-name="hotairballoon" unicode="&#84;" d="M480 362c0 101-73 150-224 150-151 0-224-49-224-150 0-117 211-251 220-257 0 0 0 0 0 0 0 0 0 0 0 0 2-1 3-1 4-1 1 0 2 0 4 1 0 0 0 0 0 0 0 0 0 0 0 0 9 6 220 140 220 257z m-160 0c0-89-46-194-64-232-18 38-64 143-64 232 0 120 37 134 64 134 27 0 64-14 64-134z m-144 0c0-77 32-163 53-212-44 46-117 135-117 212 0 75 31 117 96 130-22-23-32-67-32-130z m160 0c0 63-10 107-32 130 65-13 96-55 96-130 0-77-73-166-117-212 21 49 53 135 53 212z m-288 0c0 63 32 103 98 122-33-25-50-65-50-122 0-68 50-141 93-192-61 49-141 125-141 192z m275-192c43 51 93 124 93 192 0 57-17 97-50 122 66-19 98-59 98-122 0-67-80-143-141-192z m-107-90c-4 0-8-4-8-8l0-48c0-13 11-24 24-24l48 0c13 0 24 11 24 24l0 48c0 4-4 8-8 8z m72-56c0-5-3-8-8-8l-48 0c-5 0-8 3-8 8l0 40 64 0z"/>
<glyph glyph-name="hourglass" unicode="&#85;" d="M424 504c0 4-3 8-8 8l-320 0c-5 0-8-4-8-8 0-4 3-8 8-8l320 0c5 0 8 4 8 8z m-16-90l0 58c0 4-4 8-8 8l-287 0c-4 0-8-4-8-8l0-58c0-79 61-133 97-158-41-28-98-81-98-158l0-58c0-4 4-8 8-8l288 0c4 0 8 4 8 8l0 57c0 80-62 134-98 159 41 28 98 81 98 158z m-152-289l77-77-154 0z m36 138c-3-2-4-4-4-7 0-3 1-5 4-7 30-19 100-72 100-152l0-49-37 0c0 0 0 0 0 1l-91 91 0 12c0 4-4 8-8 8-4 0-8-4-8-8l0-12-91-91c0-1 0-1 0-1l-37 0 0 50c0 76 63 127 100 151 3 2 4 4 4 7 0 3-1 5-4 7-29 19-100 71-100 151l0 50 272 0 0-50c0-76-63-127-100-151z m45 105l-157 0c-3 0-6-1-7-4-2-2-2-5 0-8 19-32 46-52 76-73l2-2c2-1 3-1 5-1 2 0 3 0 5 1 4 3 8 6 12 9 27 19 54 38 71 66 1 3 1 6 0 8-2 3-4 4-7 4z m-73-64c-3-2-5-4-8-6-24 17-45 32-62 54l128 0c-15-19-36-33-58-48z m-168-304l320 0c5 0 8 4 8 8 0 4-3 8-8 8l-320 0c-5 0-8-4-8-8 0-4 3-8 8-8z m160 208c-4 0-8-4-8-8l0-16c0-4 4-8 8-8 4 0 8 4 8 8l0 16c0 4-4 8-8 8z m0 48c-4 0-8-4-8-8l0-16c0-4 4-8 8-8 4 0 8 4 8 8l0 16c0 4-4 8-8 8z"/>
<glyph glyph-name="key" unicode="&#86;" d="M235 277c2 0 4 0 5 2l181 159-10 12-181-159c-4-3-4-8-1-11 1-2 4-3 6-3z m-72-277c98 0 157 77 157 152 0 22-5 45-13 61l73 36c2 1 4 4 4 7l0 64 48 0c0 0 2 0 2 0 10 1 14 4 14 16l0 64 48 0c2 0 3 0 4 0 2-1 6-1 9 2 3 2 3 6 3 9 0 1 0 3 0 5l0 72c0 13-11 24-24 24l-62 0c-5 0-11-2-15-6l-211-185c-10 2-26 5-37 5-90 0-163-73-163-163 0-90 73-163 163-163z m0 310c8 0 22-2 38-5 2-1 5 0 7 2l214 187c1 1 3 2 4 2l62 0c5 0 8-3 8-8l0-72-56 0c-4 0-8-4-8-8l0-72-56 0c-4 0-8-4-8-8l0-67-76-38c-2-1-3-3-4-5 0-2 0-5 2-7 7-9 14-34 14-59 0-67-53-136-141-136-81 0-147 66-147 147 0 81 66 147 147 147z m-27-230c31 0 56 25 56 56 0 31-25 56-56 56-31 0-56-25-56-56 0-31 25-56 56-56z m0 96c22 0 40-18 40-40 0-22-18-40-40-40-22 0-40 18-40 40 0 22 18 40 40 40z"/>
<glyph glyph-name="laptop" unicode="&#87;" d="M43 134c3 0 6 3 6 6l0 287c0 7 5 12 12 12l390 0c7 0 12-6 12-13l0-286c0-3 3-6 6-6 4 0 6 3 6 6l0 286c0 14-10 25-24 25l-390 0c-14 0-24-10-24-24l0-287c0-3 2-6 6-6z m36 280c-3 0-6-2-6-6l0-268c0-3 3-6 6-6l354 0c3 0 6 3 6 6l0 268c0 4-3 6-6 6z m348-268l-342 0 0 256 342 0z m79-36l-500 0c-3 0-6-3-6-6l0-15c0-14 17-28 30-28l452 0c13 0 30 16 30 30l0 13c0 3-3 6-6 6z m-6-19c0-7-11-18-18-18l-452 0c-7 0-18 10-18 16l0 9 488 0z"/>
<glyph glyph-name="layers" unicode="&#88;" d="M492 396l-184 104c-26 14-69 14-94 0l-185-104c-14-8-22-19-22-32 0-12 8-23 22-31l185-104c13-7 29-11 47-11 17 0 34 4 47 11l184 104c14 8 22 19 22 31 0 13-8 24-22 32z m-8-48l-185-104c-20-12-57-12-77 0l-184 104c-9 4-13 11-13 16 0 6 4 12 13 17l184 104c10 6 24 9 39 9 14 0 28-3 38-9l185-104c8-5 13-11 13-17 0-5-5-12-13-16z m8-62c-4 3-9 1-11-3-3-4-1-9 3-11 8-5 13-11 13-17 0-6-5-12-13-17l-185-104c-21-12-56-12-77 0l-184 104c-9 5-13 11-13 17 0 6 4 12 13 17 4 2 5 7 3 11-2 4-8 6-12 3-14-8-22-19-22-31 0-12 8-24 22-32l185-104c13-7 30-11 47-11 17 0 33 4 47 11l184 104c14 8 22 20 22 32 0 12-8 23-22 31z m0-107c-4 2-9 1-11-3-3-4-1-9 3-12 8-4 13-11 13-16 0-6-5-12-13-17l-185-104c-21-12-56-12-77 0l-184 104c-9 5-13 11-13 17 0 5 4 12 13 16 4 3 5 8 3 12-2 4-8 5-12 3-14-8-22-19-22-31 0-13 8-24 22-32l185-104c13-7 30-11 47-11 17 0 33 4 47 11l184 104c14 8 22 19 22 32 0 12-8 23-22 31z"/>
<glyph glyph-name="leftarrow59" unicode="&#89;" d="M309 135c-2-2-6-4-9-4-4 0-7 2-10 4l-114 114c-6 6-6 14 0 19l108 109c6 5 14 5 19 0 6-6 6-14 0-19l-98-99 104-105c5-5 5-13 0-19z m203 121c0-141-115-256-256-256-141 0-256 115-256 256 0 141 115 256 256 256 141 0 256-115 256-256z m-27 0c0 127-102 229-229 229-127 0-229-102-229-229 0-127 102-229 229-229 127 0 229 102 229 229z"/>
<glyph glyph-name="lifesaver" unicode="&#90;" d="M92 467l-47-47c-3-3-3-8 0-11 1-2 3-2 5-2 2 0 4 0 6 2l47 47c3 3 3 8 0 11-3 3-8 3-11 0z m364-364l-47-47c-3-3-3-8 0-11 1-2 3-3 6-3 2 0 4 1 5 3l47 47c3 3 3 8 0 11-3 3-8 3-11 0z m-30 361c-3 3-8 3-11 0-3-3-3-8 0-11l44-44c2-2 4-2 6-2 2 0 4 0 5 2 4 3 4 8 0 11z m-378-367c-3-3-3-8 0-11l44-44c1-2 3-3 5-3 3 0 5 1 6 3 3 3 3 8 0 11l-44 44c-3 3-8 3-11 0z m25 257c-4-6-7-12-9-18-21-51-21-109 0-160 3-7 7-15 10-22 10-16 21-32 35-45 15-16 33-28 52-38 5-3 10-5 15-7 26-11 52-16 80-16 28 0 54 5 80 16 0 0 0 0 0 0 6 2 12 5 18 9 18 9 35 21 49 36 15 14 27 31 36 49 4 6 7 12 9 18 0 0 0 0 0 0 21 51 21 109 0 160-2 5-4 10-7 15-10 19-22 37-38 52-13 14-29 25-45 35-7 3-15 7-22 10-51 21-109 21-160 0 0 0 0 0 0 0-6-2-12-5-18-9-18-9-35-21-49-36-15-14-27-31-36-49z m153-25c7 3 14 5 21 6 7 1 15 1 22-1 6-1 12-2 17-5 0 0 0 0 0 0 10-4 19-9 26-17 8-7 13-16 17-26 0 0 0 0 0 0 4-8 6-16 6-25 1-5 0-9 0-14-1-7-3-14-6-21 0 0 0 0 0 0-4-10-9-19-17-26-7-8-16-13-26-17-7-3-14-5-21-6-5 0-9-1-14 0-9 0-17 2-25 6-10 4-19 9-26 17-8 7-13 16-17 26-3 5-4 11-5 17-2 7-2 15-1 22 1 7 3 15 6 21 0 0 0 0 0 0 4 10 9 19 17 26 7 8 16 13 26 17z m210-7c16-42 16-90 0-132l-89 37c2 6 3 12 4 18 1 6 1 11 0 17 0 8-2 16-4 23z m-274-82c1-4 2-9 3-13l-55-23-34-14c-16 42-16 90 0 132l89-37c-2-6-3-12-4-18-1-9-1-18 1-27z m-42-120c-12 13-23 27-32 42-2 4-4 9-6 13l62 26 27 11c5-9 10-16 17-24 7-7 15-12 24-17l-37-89c-2 1-4 2-6 3-18 9-35 21-49 35z m70-44l37 89c7-2 15-4 23-4 6-1 11-1 17 0 6 1 12 2 18 4l37-89c-42-16-90-16-132 0z m202 44c-14-13-29-24-45-33-4-2-7-4-10-5l-37 89c9 5 17 10 24 17 6 7 12 15 17 24l89-37c-1-3-3-6-5-10-9-16-20-31-33-45z m0 272c14-14 26-31 35-49 1-2 2-4 3-6l-89-37c-5 9-10 17-17 24-8 7-15 12-24 17l12 28 25 61c4-2 9-4 13-6 15-9 29-20 42-32z m-70 44l-37-89c-4 1-9 2-13 3-9 2-18 2-27 1-6-1-12-2-18-4l-27 64-10 25c42 16 90 16 132 0z m-157-11c4 2 7 4 10 5l32-77 5-12c-9-5-17-11-24-17-7-7-12-15-17-24l-81 33-8 4c1 3 3 6 5 10 9 16 20 31 33 45 14 13 29 24 45 33z m210-378c-74-41-164-41-238 0-4 3-8 1-11-3-2-3 0-8 3-11 39-22 83-33 127-33 44 0 88 11 127 33 3 3 5 7 3 11-3 4-7 6-11 3z m-342 336c-44-78-44-176 0-254 2-2 5-4 7-4 2 0 3 1 4 1 4 3 6 7 3 11-41 74-41 164 0 238 3 4 1 8-3 11-4 2-8 0-11-3z m446-254c44 78 44 176 0 254-3 3-8 5-11 3-4-3-6-7-3-11 41-74 41-164 0-238-3-4-1-8 3-11 1 0 2-1 4-1 2 0 5 2 7 4z m-342 336c74 41 164 41 238 0 1-1 2-1 4-1 2 0 5 1 7 4 2 3 0 8-3 11-78 44-175 44-254 0-3-3-5-7-3-11 3-4 7-5 11-3z"/>
<glyph glyph-name="lightbulb" unicode="&#48;" d="M256 512c-85 0-176-67-176-176 0-54 21-99 62-133 1-1 1-1 2-1 30-33 32-40 32-54 0-6 0-8 0-9l0-3c0-7-1-19 14-24l130-28c0 0 1 0 2 0 3 0 6 2 7 6 1 4-1 8-6 9l-129 29c-2 0-2 0-2 8l0 3c0 0 0 1 0 9 0 20-5 30-37 65-1 1-1 1-2 2-38 32-57 73-57 121 0 99 83 160 160 160 79 0 160-60 160-160 0-64-31-99-56-121-1 0-2-1-3-2-32-35-37-45-37-65 0 0 0-1 0-2l0 0c0-1 0-2 0-2-1 0-2 0-2 0l-67 16c-5 1-9-2-10-6-1-4 2-9 6-10l66-15c1-1 9-3 16 1 3 3 6 7 7 14l0 1c0 1 0 1 0 2 0 0 0 0 0 0l0 1c0 14 2 21 32 54 0 0 0 0 1 0 42 36 63 80 63 134 0 110-89 176-176 176z m64-472c4 0 7 3 8 6 1 5-2 9-6 10l-128 29c-5 1-9-2-10-6-1-5 2-9 6-10l128-29c1 0 1 0 2 0z m-118-1c-5 1-9-2-10-6-1-4 2-9 6-9l104-24c1 0 1 0 2 0 4 0 7 3 8 6 1 5-2 9-6 10z"/>
<glyph glyph-name="linegraph" unicode="&#49;" d="M475 451c-20 0-36-16-36-37 0-10 5-20 12-27l-107-171c-5 2-10 3-15 3-10 0-20-4-27-11l-110 70c2 4 3 9 3 15 0 20-16 36-37 36-20 0-36-16-36-36 0-11 5-21 13-28l-84-134c-5 2-9 3-14 3-21 0-37-16-37-36 0-21 16-37 37-37 20 0 36 16 36 37 0 10-5 20-12 27l84 134c4-2 9-3 13-3 11 0 20 4 27 12l111-71c-2-4-3-9-3-14 0-20 16-37 36-37 20 0 37 17 37 37 0 10-5 20-12 26l107 172c5-2 9-3 14-3 21 0 37 16 37 36 0 21-16 37-37 37z m-414-353c0-14-11-25-24-25-14 0-25 11-25 25 0 13 11 24 25 24 13 0 24-11 24-24z m97 170c-13 0-24 11-24 25 0 13 11 24 24 24 14 0 25-11 25-24 0-14-11-25-25-25z m171-110c-13 0-24 11-24 25 0 13 11 24 24 24 14 0 25-11 25-24 0-14-11-25-25-25z m146 232c-13 0-24 11-24 24 0 14 11 25 24 25 14 0 25-11 25-25 0-13-11-24-25-24z"/>
<glyph glyph-name="linkedin" unicode="&#50;" d="M312 321c-11 0-19-3-25-6-1 3-4 6-8 5l-48 0c-5 1-8-3-7-8l0-176c-1-4 2-8 7-8l48 0c5 0 8 4 8 8l0 107c0 0 0 5 3 8 3 3 7 4 14 4 10 0 14-4 16-13l0-106c-2-4 2-8 7-8l50 0c5 0 9 4 7 8l0 109c2 56-38 76-72 76z m57-177l-34 0 0 98c0 19-12 31-31 31-12 0-20-4-26-10-8-9-8-20-6-23l0-96-32 0 0 160 30 0 0-6c0-3 2-6 5-7 3-2 6-1 9 1l2 1c7 5 13 11 26 11 13 0 57-5 57-59l0-101z m-193 257c-18 0-33-15-33-33 0-18 15-33 33-33 18 0 33 15 33 33 0 18-15 33-33 33z m0-48c-9 0-15 6-15 15 0 9 6 15 15 15 9 0 15-6 15-15 0-9-6-15-15-15z m23-32l-48 0c-4 0-8-4-7-9l0-176c-1-4 3-8 7-8l48 0c5 0 8 4 8 8l0 176c0 5-3 9-8 9z m-7-177l-32 0 0 160 32 0z m64 369c-141 0-257-116-257-257 0-141 116-257 257-257 141 0 257 116 257 257 0 141-116 257-257 257z m0-496c-132 0-239 107-239 239 0 132 107 239 239 239 132 0 239-107 239-239 0-132-107-239-239-239z"/>
<glyph glyph-name="lock" unicode="&#51;" d="M256 512c-88 0-160-72-160-160l0-48-24 0c-22 0-40-18-40-40l0-224c0-22 18-40 40-40l368 0c22 0 40 18 40 40l0 224c0 22-18 40-40 40l-24 0 0 48c0 88-72 160-160 160z m-144-160c0 79 65 144 144 144 79 0 144-65 144-144l0-48-48 0 0 48c0 53-43 96-96 96-53 0-96-43-96-96l0-48-48 0z m224-48l-160 0 0 48c0 44 36 80 80 80 44 0 80-36 80-80z m-107-128l-80-80-74 0 80 80z m96 0l-80-80-74 0 80 80z m96 0l-80-80-74 0 80 80z m43 0l0-80-101 0 80 80z m-411-80l-5 0 0 80 85 0z m387-80l-368 0c-13 0-24 11-24 24l0 40 416 0 0-40c0-13-11-24-24-24z m24 248l0-72-416 0 0 72c0 13 11 24 24 24l368 0c13 0 24-11 24-24z"/>
<glyph glyph-name="magnifying-glass" unicode="&#52;" d="M168 512c-93 0-168-75-168-168 0-93 75-168 168-168 44 0 83 17 113 44 0 0 1-1 1-2l35-34c-3-5-5-10-5-16 0-9 4-17 10-23l135-136c6-6 14-9 23-9 9 0 17 3 23 9 6 6 9 14 9 23 0 9-3 17-9 23l-136 135c-10 11-27 12-39 5l-34 35c-1 0-2 1-2 1 27 30 44 69 44 113 0 93-75 168-168 168z m188-333l135-136c3-3 5-7 5-11 0-4-2-8-5-11-6-6-16-6-22 0l-136 135c-3 3-5 7-5 12 0 4 2 8 5 11 3 3 7 5 11 5 5 0 9-2 12-5z m-188 13c-84 0-152 68-152 152 0 84 68 152 152 152 84 0 152-68 152-152 0-84-68-152-152-152z m0 272c-66 0-120-54-120-120 0-66 54-120 120-120 66 0 120 54 120 120 0 66-54 120-120 120z m0-224c-57 0-104 47-104 104 0 57 47 104 104 104 57 0 104-47 104-104 0-57-47-104-104-104z"/>
<glyph glyph-name="magnifying-glass34" unicode="&#53;" d="M13 31c-7-7-7-19 0-26 3-3 8-5 12-5 5 0 9 2 13 5l148 148c33-24 75-39 119-39 110 0 199 89 199 199 0 110-89 199-199 199-110 0-199-89-199-199 0-52 21-100 53-135z m292 119c-90 0-163 73-163 163 0 90 74 163 163 163 90 0 163-73 163-163 0-90-73-163-163-163z"/>
<glyph glyph-name="map" unicode="&#54;" d="M115 57c0 0 1 0 1 0 1 0 2-1 3-1 0 0 1 0 1 0l136 37 136-37c0 0 1 0 1 0 1 0 2 1 3 1 0 0 1 0 1 0l112 69c2 1 4 4 3 7l-62 218c-1 2-2 4-4 4-2 1-4 1-6 0l-62-35c-3-1-4-5-2-8 2-3 6-4 9-3l55 31 58-206-100-61-23 190c-1 3-4 6-7 5-4 0-6-3-6-7l24-190-124 34 0 34c0 3-3 6-6 6-3 0-6-3-6-6l0-34-124-34 24 190c0 4-2 7-6 7-3 1-6-2-7-5l-23-190-100 61 58 206 55-31c3-1 7 0 9 3 2 3 1 7-2 8l-62 35c-2 1-4 1-6 0-2 0-3-2-4-4l-62-218c-1-3 1-6 3-7z m137 107c1-1 2-2 4-2 2 0 3 1 4 2 4 4 102 93 102 186 0 59-46 106-106 106-60 0-106-47-106-106 0-91 98-182 102-186z m4 279c53 0 94-40 94-93 0-76-75-154-94-173-19 19-94 98-94 173 0 53 41 93 94 93z m56-93c0 31-25 56-56 56-31 0-56-25-56-56 0-31 25-57 56-57 31 0 56 26 56 57z m-56-44c-24 0-44 20-44 44 0 24 20 43 44 43 24 0 44-19 44-43 0-24-20-44-44-44z"/>
<glyph glyph-name="map-pin" unicode="&#55;" d="M256 512c-106 0-192-86-192-192 0-159 179-312 187-318 1-1 3-2 5-2 2 0 4 1 5 2 8 6 187 156 187 318 0 106-86 192-192 192z m0-493c-29 26-176 164-176 301 0 97 79 176 176 176 97 0 176-79 176-176 0-140-146-275-176-301z m0 397c-53 0-96-43-96-96 0-53 43-96 96-96 53 0 96 43 96 96 0 53-43 96-96 96z m0-176c-44 0-80 36-80 80 0 44 36 80 80 80 44 0 80-36 80-80 0-44-36-80-80-80z"/>
<glyph glyph-name="megaphone" unicode="&#56;" d="M506 461c-4 0-7-3-7-7l0-396c0-4 3-7 7-7 3 0 6 3 6 7l0 396c0 4-3 7-6 7z m-23-16c-2 1-5 1-7 0l-7-6c-38-30-102-81-232-81l-178 0c-18 0-33-15-33-34l0-137c0-18 15-33 33-33l44 0c1-15 6-49 31-74 19-19 45-29 77-29 4 0 7 3 7 7 0 3-3 6-7 6-28 0-51 8-68 25-21 21-26 51-27 65l38 0c1-9 5-24 16-36 10-10 24-16 41-16 4 0 7 3 7 7 0 3-3 6-7 6-13 0-24 4-32 12-8 8-11 19-12 27l69 0c131 0 195-51 233-81l7-6c1-1 3-1 4-1 1 0 2 0 3 1 2 1 3 3 3 5l0 368c0 2-1 4-3 5z m-445-258l0 137c0 12 10 22 21 22l43 0 0-180-43 0c-11 0-21 9-21 21z m436-101c-41 31-107 80-238 80l-74 0c-1 1-1 1-2 1 0 0 0 0 0 0-1 0-2 0-2-1l-43 0 0 180 122 0c131 0 197 49 237 80z m-468 95c4 0 7 3 7 6l0 138c0 3-3 6-7 6-3 0-6-3-6-6l0-138c0-3 3-6 6-6z"/>
<glyph glyph-name="mic" unicode="&#33;" d="M248 128l0-64-47 0c-19 0-32-14-32-32l0-24c0-4 3-8 8-8l160 0c4 0 8 4 8 8l0 23c0 18-15 33-32 33l-49 0 0 64c64 4 113 57 113 121l0 30c0 5-4 9-8 9-5 0-9-4-9-9l0-30c0-58-46-104-103-104-58 0-104 46-104 104l0 30c0 5-4 9-8 9-5 0-9-4-9-9l0-30c0-64 50-117 112-121z m81-97l0-15-144 0 0 16c0 9 6 16 16 16l112 0c9 0 16-7 16-17z m-72 482c-40 0-73-33-73-74l0-190c0-41 33-74 73-74 40 0 72 33 71 74l0 190c1 41-31 74-71 74z m55-264c0-31-25-56-55-56-31 0-57 25-57 56l0 190c0 31 26 56 57 56 30 0 55-25 55-56z"/>
<glyph glyph-name="mobile" unicode="&#34;" d="M24 0l224 0c4 0 8 4 8 8 0 4-4 8-8 8l-224 0c-4 0-8 4-8 8l0 464c0 4 4 8 8 8l336 0c4 0 8-4 8-8l0-80c0-4 4-8 8-8 4 0 8 4 8 8l0 80c0 13-11 24-24 24l-336 0c-13 0-24-11-24-24l0-464c0-13 11-24 24-24z m264 344l0-320c0-13 11-24 24-24l176 0c13 0 24 11 24 24l0 320c0 13-11 24-24 24l-176 0c-13 0-24-11-24-24z m208 0l0-320c0-4-4-8-8-8l-176 0c-4 0-8 4-8 8l0 320c0 4 4 8 8 8l176 0c4 0 8-4 8-8z m-288-280c0-9-7-16-16-16-9 0-16 7-16 16 0 9 7 16 16 16 9 0 16-7 16-16z m208 0c0-9-7-16-16-16-9 0-16 7-16 16 0 9 7 16 16 16 9 0 16-7 16-16z"/>
<glyph glyph-name="mouse61-1" unicode="&#35;" d="M273 512l-40 0c-81 0-144-66-144-151l0-210c0-85 63-151 144-151l40 0c83 0 150 68 150 151l0 210c0 83-67 151-150 151z m-19-79l4 0c4 0 8-4 8-9l0-61c0-5-4-8-8-8l-4 0c-4 0-8 3-8 8l0 61c0 5 4 9 8 9z m150-282c0-73-59-131-131-131l-40 0c-70 0-125 57-125 131l0 210c0 74 55 131 125 131l13 0 0-41c-11-3-20-14-20-27l0-61c0-13 9-23 20-27l0-51c0-5 4-9 10-9 5 0 10 4 10 9l0 51c11 4 20 14 20 27l0 61c0 13-9 24-20 28l0 40 7 0c72 0 131-58 131-131z"/>
<glyph glyph-name="newspaper" unicode="&#36;" d="M451 98c15 0 24 9 24 24l0 323c0 3-2 6-6 6-3 0-6-3-6-6l0-323c0-11-7-12-12-12-1 0-12 0-12 12l0 323c0 3-3 6-6 6-4 0-6-3-6-6l0-323c0-16 12-24 24-24z m-396 97l122 0c3 0 6 3 6 6l0 110c0 3-3 6-6 6l-122 0c-4 0-6-3-6-6l0-110c0-3 2-6 6-6z m6 110l110 0 0-98-110 0z m-6 49l292 0c4 0 7 2 7 6l0 48c0 4-3 6-7 6l-292 0c-4 0-6-2-6-6l0-48c0-4 2-6 6-6z m6 48l280 0 0-36-280 0z m286-85l-121 0c-4 0-7-3-7-6 0-4 3-6 7-6l121 0c4 0 7 2 7 6 0 3-3 6-7 6z m0-37l-121 0c-4 0-7-2-7-6 0-3 3-6 7-6l121 0c4 0 7 3 7 6 0 4-3 6-7 6z m0-36l-121 0c-4 0-7-3-7-6 0-4 3-6 7-6l121 0c4 0 7 2 7 6 0 3-3 6-7 6z m0-37l-121 0c-4 0-7-2-7-6 0-3 3-6 7-6l121 0c4 0 7 3 7 6 0 4-3 6-7 6z m0-36l-121 0c-4 0-7-3-7-6 0-4 3-7 7-7l121 0c4 0 7 3 7 7 0 3-3 6-7 6z m-292-13l122 0c3 0 6 3 6 7 0 3-3 6-6 6l-122 0c-4 0-6-3-6-6 0-4 2-7 6-7z m292-24l-121 0c-4 0-7-3-7-6 0-3 3-6 7-6l121 0c4 0 7 3 7 6 0 3-3 6-7 6z m-292-12l122 0c3 0 6 3 6 6 0 3-3 6-6 6l-122 0c-4 0-6-3-6-6 0-3 2-6 6-6z m6-60l390 0c0 0 0 0 0 0 0 0 0 0 1 0 33 0 59 27 59 60l0 323c0 3-2 5-5 5-3 0-6-2-6-5l0-323c0-27-22-50-49-50-27 0-49 23-49 50l0 323c0 3-3 5-6 5l-390 0c-3 0-5-2-5-5l0-323c0-33 27-60 60-60z m-49 378l379 0 0-318c0-4 0-7 1-11 0-1 0-1 0-2 1-4 2-7 3-10 1-1 1-1 1-2 1-3 3-5 5-8 0 0 0-1 0-1 2-3 4-5 7-8 0 0 1-1 1-1 3-3 5-5 8-7l-356 0c-27 0-49 23-49 50z"/>
<glyph glyph-name="notebook" unicode="&#37;" d="M416 0c14 0 24 10 24 24l0 448c0 14-10 24-24 24l-320 0c-14 0-24-10-24-24l0-19c0-4 4-8 8-8 4 0 8 4 8 8l0 19c0 5 3 8 8 8l73 0 0-464-73 0c-5 0-8 3-8 8l0 15c0 4-4 8-8 8-4 0-8-4-8-8l0-15c0-14 10-24 24-24z m-232 480l232 0c5 0 8-3 8-8l0-448c0-5-3-8-8-8l-232 0z m288-440l0 416c0 4-4 8-8 8-4 0-8-4-8-8l0-416c0-4 4-8 8-8 4 0 8 4 8 8z m-424 296l64 0c4 0 8 4 8 8 0 4-4 8-8 8l-64 0c-4 0-8-4-8-8 0-4 4-8 8-8z m0 64l64 0c4 0 8 4 8 8 0 4-4 8-8 8l-64 0c-4 0-8-4-8-8 0-4 4-8 8-8z m0-128l64 0c4 0 8 4 8 8 0 4-4 8-8 8l-64 0c-4 0-8-4-8-8 0-4 4-8 8-8z m0-128l64 0c4 0 8 4 8 8 0 4-4 8-8 8l-64 0c-4 0-8-4-8-8 0-4 4-8 8-8z m0 64l64 0c4 0 8 4 8 8 0 4-4 8-8 8l-64 0c-4 0-8-4-8-8 0-4 4-8 8-8z m0-128l64 0c4 0 8 4 8 8 0 4-4 8-8 8l-64 0c-4 0-8-4-8-8 0-4 4-8 8-8z"/>
<glyph glyph-name="paintbrush" unicode="&#38;" d="M326 176l74 0c17 0 30 14 32 31l0 274c-2 17-15 31-32 31l-288 0c-17 0-30-14-32-31l0-274c2-17 15-31 32-31l80 0c5 0 33-1 33-25 0-42-9-61-12-69l-1-1 6-3 0 0-7 1c0 0 0-1 0-1-3-7-4-14-4-21 0-34 20-57 49-57 30 0 50 23 50 57 0 7-2 13-4 19 0 2 0 4-2 5 0 1-1 2-1 3-4 7-11 20-11 67 0 10 10 25 38 25z m-230 143l320 0 0-63-320 0z m16 177l288 0c8 0 14-7 16-15l0-146-320 0 0 146c2 8 8 15 16 15z m173-419c0-1 1-2 1-3 0 0 0-1 0-1 0 0 0 0 0 0 2-5 3-10 3-16 1-20-8-41-33-41-24 0-33 21-33 41 0 6 1 11 3 16 0 0 0 0 0 0 0 1 1 1 1 1l0 2c4 8 14 30 14 75 0 32-31 41-50 41 0 0 0 0 0 0l-79 0c-8 0-14 7-16 15l0 33 320 0 0-33c-2-8-8-15-16-15l-74 0c-40 0-54-24-54-41 0-50 9-67 13-74z"/>
<glyph glyph-name="paperclip" unicode="&#39;" d="M84 17c30 0 63 16 86 38l254 259c13 13 21 30 21 49 0 18-7 35-20 48-27 27-70 27-97-1l-195-203c-3-3-3-9 0-12 3-3 8-3 11 1l195 203c21 21 54 21 75 1 9-10 15-23 15-37 0-14-6-28-16-38l-254-258c-27-27-82-51-115-18-16 15-23 35-23 55 1 21 11 41 28 58l290 295c16 15 40 24 66 24 0 0 1 0 1 0 26 0 50-8 65-24 15-15 24-39 24-65 0-27-9-51-25-67l-224-233c-3-3-3-8 0-11 4-3 9-3 12 0l224 233c18 18 29 47 29 78 0 30-10 59-28 77-19 18-47 28-77 28 0 0-1 0-1 0-31 0-59-10-77-29l-291-295c-41-40-42-98-4-136 14-14 32-20 51-20z"/>
<glyph glyph-name="pencil" unicode="&#40;" d="M0 8c0-4 4-8 8-8l498 0c1 0 2 1 3 1 1 0 2 1 2 2 0 0 0 0 1 0 0 0 0 0 0 0 0 1 1 2 1 3 0 0 0 1 1 1 0 1 0 1 0 1 0 1 0 2-1 2 0 0 0 1 0 1l-50 155c-1 1-1 3-2 3l-274 274c0 1 0 1-1 2l-60 59c-9 10-25 10-35 0l-84-83c-4-5-7-11-7-18 0-7 3-13 7-18l59-58c0 0 0-1 1-1l273-276c1-1 2-1 3-2l108-32-443 0c-4 0-8-3-8-8z m102 341l251-247-9-32-260 261z m263-237l-252 249 39 39 250-251 0-37z m47 50l-249 249 17 17 259-260z m-44-66l42 0c4 0 8 4 8 8l0 43 32 7 43-134-135 41z m-352 307c0 2 1 5 3 6l83 84c4 4 9 4 13 0l54-54-96-96-54 54c-2 1-3 4-3 6z"/>
<glyph glyph-name="phone" unicode="&#41;" d="M128 0l256 0c13 0 24 11 24 24l0 464c0 13-11 24-24 24l-256 0c-13 0-24-11-24-24l0-464c0-13 11-24 24-24z m-8 488c0 4 4 8 8 8l256 0c4 0 8-4 8-8l0-464c0-4-4-8-8-8l-256 0c-4 0-8 4-8 8z m24-408l224 0c4 0 8 4 8 8l0 336c0 4-4 8-8 8l-224 0c-4 0-8-4-8-8l0-336c0-4 4-8 8-8z m8 336l208 0 0-320-208 0z m128-368c0-9-7-16-16-16-9 0-16 7-16 16 0 9 7 16 16 16 9 0 16-7 16-16z m-56 400l64 0c4 0 8 4 8 8 0 4-4 8-8 8l-64 0c-4 0-8-4-8-8 0-4 4-8 8-8z"/>
<glyph glyph-name="picture" unicode="&#42;" d="M24 0l464 0c13 0 24 11 24 24l0 464c0 13-11 24-24 24l-464 0c-13 0-24-11-24-24l0-464c0-13 11-24 24-24z m-8 488c0 4 4 8 8 8l464 0c4 0 8-4 8-8l0-464c0-4-4-8-8-8l-464 0c-4 0-8 4-8 8z m312-176c18 0 32 14 32 32 0 18-14 32-32 32-18 0-32-14-32-32 0-18 14-32 32-32z m0 48c9 0 16-7 16-16 0-9-7-16-16-16-9 0-16 7-16 16 0 9 7 16 16 16z m-256-248l368 0c4 0 8 4 8 8l0 320c0 4-4 8-8 8l-368 0c-4 0-8-4-8-8l0-320c0-4 4-8 8-8z m8 16l0 90c0 0 1 1 1 1l82 82c4 4 11 4 15 0l121-121c1-1 3-2 5-2 2 0 4 1 6 2l62 59c2 2 5 3 8 3 3 0 5-1 7-3l45-49c0 0 0 0 0 0l0-62z m352 304l0-218-33 36c-5 5-12 8-19 8 0 0 0 0 0 0-8 0-14-3-19-7l-56-54-115 115c-10 10-28 10-38 0l-72-72 0 192z"/>
<glyph glyph-name="pictures" unicode="&#43;" d="M23 70l404 0c12 0 23 10 23 23l0 388c0 13-11 23-23 23l-404 0c-13 0-23-10-23-23l0-388c0-13 10-23 23-23z m-7 411c0 4 3 8 7 8l404 0c4 0 7-4 7-8l0-388c0-4-3-8-7-8l-404 0c-4 0-7 4-7 8z m263-147c17 0 31 13 31 31 0 17-14 31-31 31-17 0-31-14-31-31 0-18 14-31 31-31z m0 46c9 0 16-7 16-15 0-9-7-16-16-16-8 0-15 7-15 16 0 8 7 15 15 15z m-225-233l342 0c4 0 7 4 7 8l0 295c0 4-3 8-7 8l-342 0c-4 0-7-4-7-8l0-295c0-4 3-8 7-8z m8 16l0 72c0 0 1 0 1 1l79 79c5 4 12 4 16 0l116-117c2-1 4-2 6-2 2 0 4 1 5 2l60 57c2 2 5 3 8 3 2 0 5-1 7-3l28-31 0-61z m326 279l0-195-17 19c-5 5-11 8-18 8 0 0 0 0 0 0-7 0-14-3-19-8l-54-51-111 111c-10 10-28 10-37 0l-70-70 0 186z m-318-389c-4 0-8-3-8-8l0-14c0-13 11-23 23-23l404 0c13 0 23 10 23 23l0 403c0 13-10 24-23 24l-14 0c-5 0-8-4-8-8 0-4 3-8 8-8l14 0c4 0 7-3 7-8l0-403c0-4-3-8-7-8l-404 0c-4 0-7 4-7 8l0 14c0 5-4 8-8 8z"/>
<glyph glyph-name="piechart" unicode="&#44;" d="M464 232c0 4-4 8-8 8l-216 0 0 216c0 4-4 8-8 8-128 0-232-104-232-232 0-132 100-232 232-232 124 0 232 108 232 232z m-448 0c0 117 93 212 208 216l0-216c0-5 4-8 8-8l216 0c-5-112-103-208-216-208-123 0-216 93-216 216z m264 40l224 0c4 0 8 4 8 8 0 128-104 232-232 232-4 0-8-4-8-8l0-224c0-5 4-8 8-8z m8 224c113-4 204-96 208-208l-208 0z"/>
<glyph glyph-name="presentation" unicode="&#45;" d="M16 464c-4 0-8-4-8-8l0-272c0-13 11-24 24-24l448 0c13 0 24 11 24 24l0 272c0 4-4 8-8 8-4 0-8-4-8-8l0-272c0-4-4-8-8-8l-448 0c-4 0-8 4-8 8l0 272c0 4-4 8-8 8z m512 48l-544 0c-4 0-8-4-8-8 0-4 4-8 8-8l544 0c4 0 8 4 8 8 0 4-4 8-8 8z m-330-130c-3 3-8 3-11 0l-96-80c-4-3-4-8-1-11 3-4 8-4 11-1l91 75 90-91c2-1 4-2 6-2 2 0 4 1 6 2l114 115 0-61c0-4 4-8 8-8 4 0 8 4 8 8l0 80c0 1 0 2-1 3 0 2-2 4-4 4-1 1-2 1-3 1l-80 0c-4 0-8-4-8-8 0-4 4-8 8-8l61 0-109-109z m-61-378c2-4 7-5 11-3l108 57 108-57c1-1 3-1 4-1 3 0 6 2 7 4 2 4 1 9-3 11l-111 58c2 1 3 3 3 6l0 41c0 4-4 8-8 8-4 0-8-4-8-8l0-41c0-3 1-5 3-6l-111-58c-4-2-5-7-3-11z"/>
<glyph glyph-name="pricetags" unicode="&#46;" d="M494 451l-122 0c-9 0-19-5-25-11l-16-16c-3-2-3-6 0-9 2-2 6-2 8 1l17 16c3 4 11 7 16 7l122 0c3 0 6-3 6-6l0-123c0-5-3-12-7-16l-172-170c-2-3-6-3-9 0l-32 32c-2 2-6 2-9 0-2-2-2-6 0-9l33-32c3-3 8-5 13-5 4 0 9 1 13 5l171 170c6 6 11 17 11 25l0 123c0 10-8 18-18 18z m-18-61c0 14-11 24-24 24-14 0-25-10-25-24 0-13 11-24 25-24 13 0 24 11 24 24z m-37 0c0 7 6 12 13 12 6 0 12-5 12-12 0-7-6-12-12-12-7 0-13 5-13 12z m-238 12c-9 0-20-4-25-10l-171-173c-7-7-7-18 0-26l128-127c3-3 8-5 13-5 4 0 9 2 13 5l171 170c6 6 11 17 11 25l0 123c0 10-8 18-18 18z m128-18l0-123c0-5-4-12-7-16l-172-170c-2-2-7-2-9 0l-127 127c-2 2-2 7 0 9l170 172c4 4 12 7 17 7l122 0c3 0 6-3 6-6z m-49-18c-13 0-24-11-24-25 0-13 11-24 24-24 14 0 25 11 25 24 0 14-11 25-25 25z m0-37c-6 0-12 6-12 12 0 7 6 13 12 13 7 0 13-6 13-13 0-6-6-12-13-12z"/>
<glyph glyph-name="printer" unicode="&#47;" d="M494 329l-31 0 0 43c0 10-8 18-18 18l-24 0c-4 0-7-3-7-6 0-3 3-6 7-6l24 0c3 0 6-3 6-6l0-43-49 0 0 116c0 3-2 6-6 6l-280 0c-4 0-6-3-6-6l0-116-49 0 0 43c0 3 3 6 6 6l24 0c4 0 7 3 7 6 0 3-3 6-7 6l-24 0c-10 0-18-8-18-18l0-43-31 0c-10 0-18-8-18-18l0-171c0-10 8-18 18-18l73 0c4 0 7 3 7 6 0 3-3 6-7 6l-73 0c-3 0-6 3-6 6l0 43 488 0 0-43c0-3-3-6-6-6l-73 0c-4 0-7-3-7-6 0-3 3-6 7-6l73 0c10 0 18 8 18 18l0 171c0 10-8 18-18 18z m-372 110l268 0 0-110-268 0z m-110-244l0 116c0 3 3 6 6 6l476 0c3 0 6-3 6-6l0-116z m384-24c-3 0-6-3-6-6l0-92-268 0 0 92c0 3-3 6-6 6-4 0-6-3-6-6l0-98c0-3 2-6 6-6l280 0c4 0 6 3 6 6l0 98c0 3-2 6-6 6z m79 61c0-7-5-13-12-13-6 0-12 6-12 13 0 6 6 12 12 12 7 0 12-6 12-12z m-48 0c0-7-6-13-13-13-6 0-12 6-12 13 0 6 6 12 12 12 7 0 13-6 13-12z"/>
<glyph glyph-name="profile-female" unicode="&#58;" d="M316 189c-2 0-4-1-6-2-2-2-2-4-2-7 4-20 17-49 58-66 5-2 12-4 22-6 35-8 94-20 108-74 1-3 4-6 7-6 1 0 1 1 2 1 4 1 6 5 5 8-17 63-84 77-119 85-9 2-16 3-19 5-25 10-41 26-47 47 67-5 98 22 99 23 2 1 3 4 3 6-1 2-2 4-4 5-39 23-39 100-39 129 0 81-55 145-125 146 0 0-2 1-2 1 0 0 0 0 0 0-71-1-129-65-129-144 0-29 0-106-39-129-2-1-3-3-4-5 0-3 1-5 3-7 2-1 45-34 99-24-7-20-23-35-47-45-3-2-10-3-18-5-36-9-103-25-120-88-1-3 1-7 5-8 4-1 8 1 9 5 14 54 74 69 110 77 9 2 16 4 20 6 41 17 54 46 58 66 0 3-1 5-2 7-2 2-5 2-7 1-39-12-74 5-90 14 37 31 37 103 37 135 0 71 52 129 116 129 0 0 1 0 1 0 63-1 111-58 111-132 0-32 0-104 37-135-13-7-42-19-91-13z"/>
<glyph glyph-name="profile-male" unicode="&#59;" d="M7 29c4-1 8 1 9 5 14 54 74 69 110 77 9 2 16 4 20 6 41 17 54 46 58 66 0 3-1 5-3 7-21 18-38 46-50 77 0 1 0 2-1 3-15 16-24 33-24 46 0 8 3 14 10 18 2 1 4 3 4 5 3 73 54 130 118 130 0 0 1 0 1 0 64-1 115-59 117-132 0-2 1-4 2-6 5-3 7-8 7-15 0-11-6-25-17-39-1-1-1-2-1-2-12-36-32-68-56-88-2-1-3-4-3-7 4-20 17-49 58-66 5-2 12-4 22-6 35-7 94-20 108-74 1-3 4-6 7-6 1 0 1 1 2 1 4 1 6 5 5 8-17 63-84 77-119 85-9 2-16 3-19 5-27 11-43 29-49 52 25 21 45 54 57 90 12 16 19 33 19 47 0 10-3 18-9 24-3 80-60 142-131 143l-2 1c-69-1-126-62-131-140-9-7-14-16-14-28 0-16 10-37 26-55 12-32 30-59 51-79-6-23-22-41-49-52-3-2-10-3-18-5-36-9-103-25-120-88-1-3 1-7 5-8z"/>
<glyph glyph-name="puzzle" unicode="&#60;" d="M293 433c0 28-23 57-74 57-44 0-75-23-75-57 0-20 8-29 14-35 3-3 4-5 4-6 0-3 0-4-8-4l-90 0c-34 0-64-28-64-59l0-54c1-14 8-23 20-23 7 0 12 4 17 8 7 5 14 11 29 11 25 0 51-21 51-59 0-38-27-65-51-65-14 0-22 6-28 12-5 4-11 8-18 8-12 0-19-8-20-23l0-60c0-32 31-62 64-62l90 0c14 0 22 8 22 20 0 7-4 12-7 16-5 6-10 11-10 25 0 26 23 43 60 43 36 0 60-17 60-43 0-14-5-19-10-25-4-4-8-9-8-16 0-12 9-19 23-20l57 0c32 0 54 24 54 60l0 68c0 1 5 8 12 8 1 0 3-1 6-4 6-5 15-13 35-13 32 0 64 24 64 71 0 51-29 73-59 73-19 0-31-9-38-15-3-2-7-5-8-5-7 0-12 7-12 9 0 0 0 0 0 0l0 52c0 36-23 62-54 62l-57 0c0 0 0 0 0 0-8 0-8 1-8 4 0 1 1 3 4 6 5 6 13 15 13 35z m-24-25c-4-5-8-9-8-16 0-8 4-18 22-19 0 0 0 0 1 0l57 0c26 0 39-23 39-47l0-53c0 0 0-1 0-1 2-9 13-21 27-21 7 0 12 4 17 8 7 5 15 12 29 12 27 0 44-23 44-59 0-39-25-57-49-57-15 0-20 5-26 10-4 4-8 8-15 8-14 0-25-12-27-21 0-1 0-1 0-2l0-68c0-23-12-45-39-45l-57 0c-8 0-8 4-8 5 0 2 1 3 4 6 5 6 13 16 13 35 0 29-23 58-74 58-45 0-75-23-75-58 0-19 8-29 14-35 3-3 4-4 4-6 0-1 0-5-8-5l-90 0c-25 0-49 23-49 47l0 60c0 8 4 8 5 8 2 0 5-2 8-5 8-6 19-15 38-15 32 0 66 32 66 80 0 48-34 73-66 73-20 0-31-8-38-14-3-2-6-4-8-4-1 0-5 0-5 8l0 54c0 26 26 44 49 44l90 0c0 0 0 0 1 0 18 1 21 11 21 19 0 7-4 11-7 16-5 5-10 10-10 25 0 25 24 42 60 42 36 0 60-16 60-42 0-14-5-20-10-25z"/>
<glyph glyph-name="quote" unicode="&#61;" d="M256 0c141 0 256 115 256 256 0 141-115 256-256 256-141 0-256-115-256-256 0-141 115-256 256-256z m0 496c132 0 240-108 240-240 0-132-108-240-240-240-132 0-240 108-240 240 0 132 108 240 240 240z m-84-202c8-3 16-2 24 3 4 3 5 7 3 11-3 4-7 5-11 3-4-3-8-3-11-2-4 1-7 4-10 9-3 4-4 9-3 14 1 4 4 8 9 11 9 6 22 3 31-4 14-10 20-29 20-59 0-45-20-101-60-121-4-2-5-7-3-11 1-2 4-4 7-4 1 0 2 0 4 1 47 24 68 87 68 135 0 36-9 58-27 72-15 12-35 13-49 5-8-5-13-13-15-22-2-9-1-18 4-26 5-8 11-13 19-15z m128 0c8-3 16-2 24 3 4 3 5 7 3 11-3 4-7 5-11 3-4-3-8-3-11-2-4 1-7 4-10 9-3 4-4 9-3 14 1 4 4 8 9 11 9 6 22 3 31-4 14-10 20-29 20-59 0-45-20-101-60-121-4-2-5-7-3-11 1-2 4-4 7-4 1 0 2 0 4 1 47 24 68 87 68 135 0 36-9 58-27 72-15 12-35 13-49 5-8-5-13-13-15-22-2-9-1-18 4-26 5-8 11-13 19-15z"/>
<glyph glyph-name="recycle" unicode="&#62;" d="M194 469l-49-73c-2-3-1-8 3-11 3-2 8-1 11 3l49 73c13 23 30 35 48 35 18 0 35-12 48-35l88-154-62 13c-5 1-9-2-10-6-1-5 2-9 6-10l80-16c1 0 1 0 2 0 1 0 2 0 4 1 0 0 0 0 0 0 0 0 0 0 0 0 1 1 1 1 2 2 0 0 0 0 1 0 0 1 0 2 0 2 0 0 1 1 1 1 0 0 0 0 0 0l16 80c1 5-2 9-6 10-5 1-9-2-10-6l-12-60-86 151c-16 28-38 43-62 43-24 0-46-15-62-43z m-34-413c0 4-4 8-8 8l-72 0c-25 0-45 9-54 26-11 18-9 42 5 65l88 155 26-65c1-3 4-5 7-5 1 0 2 0 3 1 4 1 6 6 4 10l-32 80c0 0 0 1 0 1 0 0-1 1-1 1 0 1-1 1-2 2 0 0 0 0 0 0 0 0 0 0 0 0-1 0-2 1-3 1 0 0 0 0-1 0 0 0-1 0-2 0l-80-16c-4-1-7-5-6-10 1-4 5-7 10-6l62 13-87-154c-17-28-18-58-5-81 13-22 37-34 68-34l72 0c4 0 8 3 8 8z m340 26c13 23 12 53-4 80l-33 73c-1 4-6 6-10 4-4-1-6-6-4-10l32-74c14-23 16-47 5-65-9-16-29-26-54-26l-165 0 35 34c3 3 3 9 0 12-3 3-9 3-12 0l-48-48c-1-2-2-4-2-6 0 0 0 0 0 0 0-3 1-5 3-7l47-47c2-1 4-2 6-2 2 0 4 1 6 2 3 3 3 9 0 12l-34 34 164 0c31 0 56 13 68 34z"/>
<glyph glyph-name="refresh" unicode="&#63;" d="M426 448l78 0c4 0 8 4 8 8 0 4-4 8-8 8l-96 0c-4 0-8-4-8-8l0-96c0-4 4-8 8-8 4 0 8 4 8 8l0 75 10-9c45-46 70-106 70-170 0-64-25-124-70-170-68-67-168-88-257-54-4 2-9 0-10-4-2-4 0-9 4-11 30-11 62-17 93-17 67 0 132 26 181 75 48 48 75 113 75 181 0 68-27 133-75 181z m-322-288c-4 0-8-4-8-8l0-77-11 11c-46 45-71 106-71 170 0 64 25 124 71 169 66 67 165 88 253 56 4-2 9 0 10 4 2 5 0 9-4 11-94 34-200 11-271-59-48-49-75-113-75-181 0-69 27-133 75-181l11-11-76 0c-4 0-8-4-8-8 0-4 4-8 8-8l94 0c0 0 6 0 7 2 0 0 0 0 0 0 2 2 3 4 3 6l0 96c0 4-4 8-8 8z"/>
<glyph glyph-name="ribbon" unicode="&#64;" d="M56 368c-4 0-8-4-8-8l0-335c0-11 5-17 9-20 5-4 11-5 17-5 3 0 6 0 8 1 47 15 150 120 176 147 25-27 125-132 172-147 6-2 17-2 25 4 4 3 9 9 9 20l0 335c0 4-4 8-8 8-4 0-8-4-8-8l0-335c0-4-2-6-3-7-3-2-8-2-11-1-48 14-169 147-170 148-2 2-4 3-6 3-2 0-4-1-6-3-1-1-126-134-174-148-3-1-8-1-11 1-1 1-3 3-3 7l0 335c0 4-4 8-8 8z m424 40l0 80c0 13-11 24-24 24l-400 0c-13 0-24-11-24-24l0-80c0-4 4-8 8-8l432 0c4 0 8 4 8 8z m-16 8l-416 0 0 72c0 4 4 8 8 8l400 0c4 0 8-4 8-8z"/>
<glyph glyph-name="right127" unicode="&#91;" d="M257-3c-142 0-257 116-257 258 0 142 115 257 257 257 142 0 258-115 258-257 0-142-116-258-258-258z m0 498c-132 0-240-108-240-240 0-133 108-240 240-240 133 0 240 107 240 240 0 132-107 240-240 240z m-32-331c-2 0-4 1-6 3-4 3-4 9 0 12l79 79-79 79c-4 4-4 9 0 13 3 3 9 3 12 0l85-85c4-4 4-9 0-13l-85-85c-1-2-4-3-6-3z"/>
<glyph glyph-name="rightarrow59" unicode="&#93;" d="M333 244l-109-109c-5-5-13-5-19 0-5 6-5 14 0 19l100 99-105 105c-5 5-5 13 0 19 5 5 14 5 19 0l114-114c5-6 5-14 0-19z m179 12c0-141-115-256-256-256-141 0-256 115-256 256 0 141 115 256 256 256 141 0 256-115 256-256z m-27 0c0 127-102 229-229 229-127 0-229-102-229-229 0-127 102-229 229-229 127 0 229 102 229 229z"/>
<glyph glyph-name="rss" unicode="&#94;" d="M256 513c-141 0-257-116-257-257 0-141 116-257 257-257 141 0 257 116 257 257 0 141-116 257-257 257z m0-496c-132 0-239 107-239 239 0 132 107 239 239 239 132 0 239-107 239-239 0-132-107-239-239-239z m-88 272c-5 0-9-4-9-9 0-4 4-8 9-8 36 0 66-11 87-33 21-21 32-51 32-87 0-5 4-9 9-9 5 0 9 4 9 9 0 41-13 75-38 100-24 24-58 37-99 37z m0 79c-5 0-8-4-8-9 0-5 3-9 8-9 114 0 200-85 200-198 0-5 4-9 9-9 5 0 9 4 9 9 0 123-94 216-218 216z m24-158c-18 0-33-15-33-33 0-18 15-32 33-32 18 0 33 14 33 32 0 18-15 33-33 33z m0-48c-9 0-15 7-15 15 0 9 6 16 15 16 8 0 15-7 15-16 0-8-6-15-15-15z"/>
<glyph glyph-name="sad" unicode="&#95;" d="M256 513c-141 0-257-116-257-257 0-141 116-257 257-257 141 0 257 116 257 257 0 141-116 257-257 257z m0-496c-132 0-239 107-239 239 0 132 107 239 239 239 132 0 239-107 239-239 0-132-107-239-239-239z m3 178c-45 0-88-19-118-52-4-3-3-9 0-12 4-3 9-3 12 0 27 30 66 47 106 47 40 0 79-18 106-48 2-2 4-3 6-3 2 0 5 1 6 3 4 3 4 8 1 12-31 33-74 53-119 53z m-91 53c18 0 32 14 32 32 0 18-14 32-32 32-18 0-32-14-32-32 0-18 14-32 32-32z m0 48c9 0 16-7 16-16 0-9-7-16-16-16-9 0-16 7-16 16 0 9 7 16 16 16z m176-48c18 0 32 14 32 32 0 18-14 32-32 32-18 0-32-14-32-32 0-18 14-32 32-32z m0 48c9 0 16-7 16-16 0-9-7-16-16-16-9 0-16 7-16 16 0 9 7 16 16 16z"/>
<glyph glyph-name="scissors" unicode="&#96;" d="M408 48c31 0 56 25 56 56 0 31-25 56-56 56-31 0-56-25-56-56 0-31 25-56 56-56z m0 96c22 0 40-18 40-40 0-22-18-40-40-40-22 0-40 18-40 40 0 22 18 40 40 40z m-108-15c0-23 5-53 13-69 16-40 47-60 92-60 59 0 107 48 107 107 0 58-45 99-107 99-71 0-94 38-95 40 0 0 0 1-1 1l-246 262c-2 3-5 4-8 2-3-1-5-4-5-7 0-154 103-235 178-295 40-31 72-56 72-80z m-234 354l231-246c4-7 33-47 108-47 53 0 91-35 91-83 0-50-41-91-91-91-39 0-64 16-77 50-6 13-12 39-12 63 0 32-35 59-78 93-69 54-163 128-172 261z m-18-379c0-31 25-56 56-56 31 0 56 25 56 56 0 31-25 56-56 56-31 0-56-25-56-56z m96 0c0-22-18-40-40-40-22 0-40 18-40 40 0 22 18 40 40 40 22 0 40-18 40-40z m186 160c-3-3-3-8 0-11 1-2 3-2 6-2 1 0 3 0 5 2 56 51 121 126 121 251 0 3-2 6-5 7-3 2-6 1-8-2l-175-186c-3-3-3-8 0-11 3-3 8-3 12 0l160 171c-7-106-65-172-116-219z m-155-54c4 1 6 6 4 10-1 4-6 6-10 5-4-2-7-3-11-5-14-6-30-14-51-14-62 0-107-41-107-99 0-59 48-107 107-107 45 0 76 20 92 60 8 17 9 55 9 76 0 4 12 13 19 19 7 5 14 10 19 16 3 3 3 8-1 11-3 3-8 3-11-1-4-4-10-9-16-13-13-10-26-20-26-32 0-33-3-59-8-70-13-34-38-50-77-50-50 0-91 41-91 91 0 48 38 83 91 83 24 0 43 9 57 15 4 2 7 3 11 5z m94 30c0-7-6-13-13-13-7 0-13 6-13 13 0 7 6 13 13 13 7 0 13-6 13-13z"/>
<glyph glyph-name="scope" unicode="&#123;" d="M272 408c0 4-4 8-8 8-4 0-8-4-8-8l0-136-152 0c-4 0-8-4-8-8 0-4 4-8 8-8l152 0 0-152c0-4 4-8 8-8 4 0 8 4 8 8l0 152 152 0c4 0 8 4 8 8 0 4-4 8-8 8l-152 0z m233-136l-42 0c-8 102-89 183-191 191l0 41c0 4-4 8-8 8-4 0-8-4-8-8l0-40c-109 0-199-85-207-192l-40 0c-4 0-8-4-8-8 0-4 4-8 8-8l39 0c0-115 93-208 208-208l0-40c0-4 4-8 8-8 4 0 8 4 8 8l0 41c107 8 192 98 192 207l41 0c4 0 8 4 8 8 0 4-4 8-8 8z m-249-208c-106 0-192 86-192 192 0 106 86 192 192 192 106 0 192-86 192-192 0-106-86-192-192-192z"/>
<glyph glyph-name="search" unicode="&#124;" d="M23 8l326 0c13 0 23 10 23 23l0 116c0 1 0 1 0 1 1 0 2 1 3 1l124-123c1-2 3-3 5-3 2 0 4 1 6 3 3 3 3 7 0 11l-123 122c20 19 32 45 32 74 0 35-19 67-47 85 0 0 0 0 0 0l0 39c0 0 0 0 0 1 0 0 0 0 0 1 0 1-1 2-1 3 0 0 0 0-1 0l-124 140c0 0 0 0 0 0-1 1-2 1-3 2-1 0-1 0-1 0-1 0-1 0-2 0l-217 0c-13 0-23-10-23-23l0-450c0-13 10-23 23-23z m380 225c0-47-38-86-85-86-47 0-85 39-85 86 0 47 38 85 85 85 47 0 85-38 85-85z m-155 243l99-111-91 0c-3 0-8 6-8 11z m-232 5c0 4 3 8 7 8l210 0 0-113c0-12 10-27 23-27l101 0 0-23c-12 5-25 8-39 8-28 0-54-12-73-31l-160 0c-4 0-7-4-7-8 0-4 3-8 7-8l148 0c-9-14-14-29-15-47l-133 0c-4 0-7-3-7-7 0-5 3-8 7-8l133 0c1-17 6-33 15-47l-148 0c-4 0-7-3-7-7 0-5 3-8 7-8l159 0c1 0 1 0 1 0 19-19 44-31 73-31 14 0 27 3 39 8l0-109c0-4-4-8-8-8l-326 0c-4 0-7 4-7 8z m69-132l93 0c5 0 8 4 8 8 0 4-3 8-8 8l-93 0c-4 0-7-4-7-8 0-4 3-8 7-8z m0-248l202 0c4 0 8 3 8 8 0 4-4 7-8 7l-202 0c-4 0-7-3-7-7 0-5 3-8 7-8z"/>
<glyph glyph-name="shield" unicode="&#125;" d="M256 512c-143 0-211-81-214-84-1-2-2-3-2-5l0-161c0-136 125-217 179-245 4-2 9-1 11 3 2 4 0 9-3 11-64 33-171 108-171 231l0 158c11 12 74 73 192 76l0-488c0-4 4-8 8-8 2 0 5 1 6 3 26 11 210 96 210 261l0 160c0 2-1 4-2 5-2 3-59 70-178 82-4 0-8-3-9-7 0-4 3-8 7-9 101-10 156-63 166-74l0-157c0-143-150-223-192-243l0 483c0 4-4 8-8 8z"/>
<glyph glyph-name="shopping111" unicode="&#126;" d="M509 405c-3 4-8 7-13 7l-317 14c-9 0-17-7-17-16-1-9 6-17 15-17l296-13-58-181-259 0-47 254c-1 6-5 11-10 13l-77 30c-8 3-18-1-21-9-3-9 1-18 9-22l69-27 47-259c2-8 8-13 16-13l8 0-18-50c-1-5-1-9 2-13 2-3 7-6 11-6l13 0c-8-8-13-20-13-33 0-27 22-49 49-49 27 0 50 22 50 49 0 13-5 25-13 33l107 0c-7-8-12-20-12-33 0-27 22-49 49-49 27 0 49 22 49 49 0 13-5 25-12 33l15 0c8 0 14 6 14 14 0 8-6 14-14 14l-262 0 14 41 248 0c7 0 13 4 16 11l68 214c2 5 1 10-2 14z m-315-362c-12 0-22 9-22 21 0 13 10 22 22 22 12 0 22-9 22-22 0-12-10-21-22-21z m181 0c-12 0-22 9-22 21 0 13 10 22 22 22 12 0 22-9 22-22 0-12-10-21-22-21z"/>
<glyph glyph-name="speedometer" unicode="&#92;" d="M256 513c-141 0-257-116-257-257 0-141 116-257 257-257 141 0 257 116 257 257 0 141-116 257-257 257z m0-496c-132 0-239 107-239 239 0 132 107 239 239 239 132 0 239-107 239-239 0-132-107-239-239-239z m8 398c5 0 9 4 9 9l0 32c0 5-4 9-9 9-5 0-9-4-9-9l0-32c0-5 4-9 9-9z m-176-142l-32 0c-5 0-9-4-9-9 0-5 4-9 9-9l32 0c5 0 9 4 9 9 0 5-4 9-9 9z m327-9c0-5 4-9 9-9l32 0c5 0 9 4 9 9 0 5-4 9-9 9l-32 0c-5 0-9-4-9-9z m-278 86c2 0 5 1 6 3 4 3 4 9 0 12l-25 25c-3 4-9 4-12 0-4-3-4-9 0-12l25-25c2-2 4-3 6-3z m245-176c-3 4-9 4-12 0-4-3-4-9 0-12l24-24c1-2 4-3 6-3 2 0 5 1 6 3 4 3 4 9 0 12z m16 212c4 3 4 9 0 12-3 4-9 4-12 0l-25-25c-4-3-4-9 0-12 1-2 4-3 6-3 2 0 4 1 6 3z m-260-220l-24-24c-4-3-4-9 0-12 1-2 4-3 6-3 2 0 5 1 6 3l24 24c4 3 4 9 0 12-3 4-9 4-12 0z m174-38l-112 0c-14 1-25-10-25-24l0-15c0-15 11-26 25-25l112 0c14-1 25 10 25 25l0 15c0 14-11 25-25 24z m7-39c0-4-2-9-7-9l-112 0c-5 0-7 5-7 0l0 15c0 14 2 16 7 17l112 0c5-1 7-3 7-8z m-63 124c11 0 22 5 30 13 15 14 17 37 6 54l42 42c3 3 3 9 0 12-3 3-9 3-12 0l-43-42c-16 10-39 8-53-6-17-16-17-44 0-60 8-8 19-13 30-13z m-15 58c4 4 9 6 15 6 6 0 11-2 15-6 8-8 8-22 0-30-8-8-22-8-30 0-8 8-8 22 0 30z"/>
<glyph glyph-name="strategy" unicode="&#57344;" d="M424 8c0 4-4 8-8 8l-288 0c-4 0-8-4-8-8 0-4 4-8 8-8l288 0c4 0 8 4 8 8z m-332 354c-6-4-16-18-7-37 8-16 25-35 43-41 9-2 17-1 25 4 18 10 39 24 47 31 11-6 25-7 40-4 0 0 0 0 0 0-1-26-10-42-54-83-39-36-62-84-61-127 0-29 10-53 30-71 1-1 3-2 5-2l224 0c4 0 8 4 8 8 0 4-4 8-8 8l-221 0c-15 14-22 34-22 57-1 38 21 83 56 115 47 44 59 64 59 100 0 1 0 1 0 2 8 5 16 11 21 18 7 10 21 34 10 55-2 4-7 6-10 4-4-2-6-7-4-10 4-10 1-25-9-40-6-8-16-15-28-18-12-3-24-2-31 4-3 1-7 1-10 0 0-1-28-20-50-34-4-2-8-3-13-1-12 3-26 19-32 32-6 11 0 16 2 18 55 47 83 97 84 99 1 2 1 4 1 6 0 0-6 17-9 33 17-10 46-24 75-24 42 0 139-16 139-160 0-1 0-79-32-165-1-4 1-9 5-11 1 0 2 0 3 0 3 0 6 2 8 5 32 89 32 168 32 171 0 163-118 176-155 176-40 0-80 30-80 30-3 2-6 2-9 1-2-1-4-4-4-7 0-16 7-41 10-50-6-12-33-53-78-92z m260 125c-26 18-54 25-96 25-4 0-8-4-8-8 0-4 4-8 8-8 38 0 64-7 87-22 37-25 81-75 81-170 0-23 0-55-16-118-1-4 2-9 6-10 1 0 1 0 2 0 4 0 7 2 8 6 16 65 16 98 16 122 0 102-48 156-88 183z"/>
<glyph glyph-name="streetsign" unicode="&#57345;" d="M264 8l0 152c0 4-2 16-7 16-4 0-9-4-9-8l0-160c0-4 5-8 9-8 5 0 7 4 7 8z m1 479l0 17c0 4-3 8-8 8-4 0-8-4-8-8l0-17c0-4 4-8 8-8 5 0 8 4 8 8z m-179-31l-57-44c-3-3-5-8-5-12 0-4 2-9 6-12l56-44c5-5 13-8 20-8l221 0c10 0 17 7 17 17l0 94c0 10-7 17-17 17l-221 0c-7 0-15-3-20-8z m242-103c0-1 0-1-1-1l-221 0c-3 0-7 2-10 4l-56 44 57 44c2 2 6 4 9 4l222-1z m98-41c-5 5-13 8-20 8l-221 0c-10 0-17-7-17-17l0-94c0-10 7-17 17-17l221 0c7 0 15 3 20 8l57 44c3 3 5 8 5 12 0 4-2 9-6 12z m-242-8l222 0c3 0 7-2 10-4l56-44-57-44c-2-2-6-4-9-4l-222 0z"/>
<glyph glyph-name="tablet" unicode="&#57346;" d="M80 0l352 0c13 0 24 11 24 24l0 464c0 13-11 24-24 24l-352 0c-13 0-24-11-24-24l0-464c0-13 11-24 24-24z m-8 488c0 4 4 8 8 8l352 0c4 0 8-4 8-8l0-464c0-4-4-8-8-8l-352 0c-4 0-8 4-8 8z m40-408l288 0c4 0 8 4 8 8l0 368c0 4-4 8-8 8l-288 0c-4 0-8-4-8-8l0-368c0-4 4-8 8-8z m8 368l272 0 0-352-272 0z m160-400c0-9-7-16-16-16-9 0-16 7-16 16 0 9 7 16 16 16 9 0 16-7 16-16z"/>
<glyph glyph-name="telescope" unicode="&#57347;" d="M402 456c-1 2-3 4-5 4-1 1-4 1-5 0l-175-92c-3-2-4-6-3-9l4-9-101-56c-3-1-5-5-3-9l3-8-107-51c-3-1-5-6-3-9l22-53c1-3 4-5 6-5 1 0 2 1 3 1l111 39 4-8c1-2 4-4 6-4 1 0 2 0 3 0l106 31 3-9c1-2 4-4 7-4 1 0 1 0 2 0l190 59c2 0 4 2 5 3 1 2 1 4 0 6z m-363-280l-16 40 100 48 21-51z m125 27l-4 8-27 65-3 9 92 51 35-90 6-14z m118 18l-3 8c0 0 0 0 0 0l-9 24-40 105 161 85 67-168z m142 264c-2 4-6 6-10 5-4-2-5-6-4-10l88-219c1-3 4-5 7-5 1 0 2 0 2 1 4 1 6 5 4 9z m-161-302l-44 0c-16 0-29-13-29-29l0-20-86-100c-2-3-2-8 1-10 1-1 3-2 5-2 2 0 4 1 5 3l86 99 33 0 0-95c0-4 3-7 7-7 4 0 8 3 8 7l0 95 33 0 85-99c2-2 4-3 6-3 2 0 3 1 5 2 3 2 3 7 1 10l-86 100 0 19c0 17-13 30-30 30z m15-44l-73 0 0 15c0 8 6 14 14 14l44 0c9 0 15-7 15-15z"/>
<glyph glyph-name="toolbox" unicode="&#57348;" d="M506 244c-3 0-6-3-6-6l0-159c0-3-3-6-6-6l-476 0c-3 0-6 3-6 6l0 159c0 3-3 6-6 6-3 0-6-3-6-6l0-159c0-10 8-18 18-18l476 0c10 0 18 8 18 18l0 159c0 3-3 6-6 6z m-12 122l-476 0c-10 0-18-8-18-19l0-73c0-3 3-6 6-6l165 0 0-42c0-11 8-19 18-19l134 0c10 0 18 8 18 19l0 42 165 0c3 0 6 3 6 6l0 73c0 11-8 19-18 19z m-165-140c0-4-3-7-6-7l-134 0c-3 0-6 3-6 7l0 42 146 0z m171 54l-488 0 0 67c0 4 3 7 6 7l476 0c3 0 6-3 6-7z m-311 171c-10 0-18-8-18-18l0-49c0-3 2-6 6-6 3 0 6 3 6 6l0 49c0 3 3 6 6 6l134 0c3 0 6-3 6-6l0-49c0-3 3-6 6-6 4 0 6 3 6 6l0 49c0 10-8 18-18 18z"/>
<glyph glyph-name="tools" unicode="&#57349;" d="M10 422c-13-14-10-33 0-44 1 0 44-42 105-102 2-2 4-3 6-3 2 0 4 1 5 3 4 3 4 8 0 11-9 9-17 18-26 26l26 25c3 3 3 9 0 12-3 3-9 3-12 0l-25-26c-14 14-27 27-37 37l58 57c3 3 3 9 0 12-3 3-9 3-12 0l-58-58c-11 11-18 18-18 18-4 3-8 13 0 20l80 80c3 3 11 10 20 1 0-1 41-47 102-108 4-3 9-3 12 0 3 3 3 8 0 11-62 61-102 107-102 108-15 15-33 10-44 0z m340-296c-3 3-9 3-12 0l-25-26c-8 8-16 16-25 25-3 3-8 3-11 0-3-3-3-8 0-11 59-60 101-104 101-105 6-5 13-8 22-8 8 0 16 3 22 8l80 81c10 10 10 28 1 37l-107 107c-4 3-9 3-12 0-3-3-3-8 0-11l108-107c3-4 2-10-2-14l-80-81c-2-2-6-4-10-4-3 0-7 1-10 4 0 0-7 7-19 19l59 58c3 3 3 9 0 12-3 3-9 3-12 0l-58-58c-10 10-22 23-36 37l26 25c3 3 3 9 0 12z m-348-123c2-2 4-3 6-3 1 0 2 0 2 1l160 47c2 1 3 1 4 2l273 276c1 0 1 1 1 1l58 58c5 5 8 11 8 18 0 7-3 13-8 18l-83 83c-10 10-26 10-36 0l-59-59c-1-1-1-1-1-2l-274-274c-1 0-2-2-2-3l-51-155c-1-3 0-6 2-8z m332 425l16-17-248-249-28 6z m-222-279l250 251 39-39-252-249-37 0z m318 182l-260-261-9 32 251 247z m-366-177l32-7 0-43c0-4 4-8 8-8l42 0 10-35-136-41z m335 339c3 4 9 4 12 0l84-84c2-1 3-4 3-6 0-2-1-5-3-6l-54-54-96 96z"/>
<glyph glyph-name="tools-2" unicode="&#57350;" d="M454 490c2 2 2 5 2 7-1 3-2 5-5 6-36 17-80 10-108-19-28-27-37-70-24-106l-185-185c-10 4-21 6-32 6-27 0-54-11-73-30-28-29-36-71-20-108 1-3 3-4 6-5 2 0 5 0 7 2l56 57c3 3 9 4 12 1l24-26c4-3 4-9 0-12l-56-56c-2-2-2-5-2-7 1-3 2-5 5-6 13-6 27-10 41-10 25 0 49 10 67 29 28 27 37 70 24 106l185 185c10-4 21-6 32-6 27 0 54 11 73 30 28 29 36 71 20 108-1 3-3 4-6 5-2 0-5 0-7-2l-56-56c-3-4-9-4-12 0l-24 24c-4 3-4 9 0 12z m-68-80l24-24c10-9 26-9 36 0l47 47c7-28-1-57-21-79-16-16-39-25-62-25-11 0-21 2-31 6-3 2-6 1-9-1l-192-192c-2-3-3-6-1-9 12-31 5-70-19-94-21-21-52-29-80-20l47 47c10 10 10 26 1 36l-24 25c-10 9-26 9-36-1l-47-47c-7 28 1 57 22 78 15 17 38 26 61 26 11 0 21-2 31-6 3-2 6-1 9 1l192 192c2 3 3 6 1 9-12 31-5 70 19 94 21 21 52 29 80 20l-48-47c-10-10-10-26 0-36z m81-388c-3-4-9-4-13 0l-160 160c-3 3-9 3-12 0-3-3-3-9 0-12l161-160c5-4 11-7 18-7 7 0 13 3 18 7l23 24c10 10 10 26 0 36l-160 160c-3 3-9 3-12 0-3-3-3-9 0-12l160-160c4-3 4-9 0-12z m-373 440l-48 48c-3 3-9 3-12 0l-32-32c-3-3-3-9 0-12l48-48c2-1 4-2 6-2 2 0 4 1 6 2l10 11 122-123c2-1 4-2 6-2 2 0 4 1 6 2 3 3 3 9 0 12l-123 122 11 10c3 3 3 9 0 12z m-38-27l-37 37 21 21 37-37z"/>
<glyph glyph-name="traget" unicode="&#57351;" d="M509 291c-2 3-7 2-9 0l-29-35c0 0-1 0-2 0l-17 0 22 26c2 3 2 7-1 9-3 3-7 2-9 0l-29-35-19 0 22 26c2 3 2 7-1 9-3 3-7 2-9 0l-29-35-9 0c0 108-88 195-195 195-107 0-195-87-195-195 0-108 88-195 195-195 103 0 188 81 194 183l10 0 29-35c1-1 3-2 5-2 1 0 3 0 4 1 3 3 3 7 1 10l-22 26 19 0 29-35c1-1 3-2 5-2 1 0 3 0 4 1 3 3 3 7 1 10l-22 26 17 0c1-1 2 0 2 0l29-35c1-1 3-2 5-2 2 0 3 0 4 1 3 3 3 7 1 10l-27 32 27 32c2 3 2 7-1 9z m-314-218c-101 0-183 82-183 183 0 101 82 183 183 183 101 0 183-82 183-183l-37 0c0 81-65 146-146 146-81 0-146-65-146-146 0-81 65-146 146-146 76 0 139 59 146 134l36 0c-6-96-85-171-182-171z m98 183c-1 54-44 98-98 98-54 0-97-44-97-98 0-54 43-98 97-98 50 0 90 38 97 86l36 0c-6-69-63-122-133-122-74 0-134 60-134 134 0 74 60 134 134 134 74 0 134-60 134-134z m-49 0c0 27-22 49-49 49-27 0-49-22-49-49 0-27 22-49 49-49 23 0 41 16 47 37l37 0c-6-42-41-73-84-73-47 0-85 38-85 85 0 47 38 85 85 85 47 0 85-38 85-85z m-43-12l28 0c-5-15-18-25-34-25-20 0-37 17-37 37 0 20 17 37 37 37 20 0 36-17 37-37l-31 0c-3 0-6-3-6-6 0-4 3-7 6-6z"/>
<glyph glyph-name="trophy" unicode="&#57352;" d="M384 482c4 0 8 3 8 7 0 5-4 8-8 8l-256 0c-4 0-8-3-8-8 0-4 4-7 8-7z m0-15l-286 0c-50 0-73-18-83-32-13-19-16-43-7-68 13-40 58-88 85-109 2-1 3-2 5-2 2 0 4 1 6 3 2 3 2 8-1 10-26 20-69 66-81 102-7 21-5 41 5 55 12 17 37 26 71 26l22 0 0-143c0-102 101-160 121-171 0-1 0-2 0-2l0-38c0-4 3-8 7-8 5 0 8 4 8 8l0 38c0 0 0 1 0 2 22 11 136 69 136 171l0 143 22 0c34 0 59-9 71-26 10-14 12-34 5-55-10-28-57-83-81-102-3-2-3-7-1-10 2-2 4-3 6-3 2 0 3 1 5 2 26 20 74 77 85 109 9 25 6 49-7 68-10 14-33 32-83 32z m-8-158c0-92-107-148-127-158-19 10-113 66-113 158l0 143 240 0z m-210-234c-18 0-30-13-30-30l0-22c0-5 3-8 7-8l211 0c4 0 7 3 7 8l0 21c0 18-13 31-30 31z m180-31l0-14-195 0 0 15c0 9 6 15 15 15l165 0c9 0 15-7 15-16z"/>
<glyph glyph-name="tumblr" unicode="&#57353;" d="M256 513c-141 0-257-116-257-257 0-141 116-257 257-257 141 0 257 116 257 257 0 141-116 257-257 257z m0-496c-132 0-239 107-239 239 0 132 107 239 239 239 132 0 239-107 239-239 0-132-107-239-239-239z m72 303l-56 0 0 56c1 5-3 9-8 9l-41 0c-5 0-8-4-9-8-1-12-4-22-8-30-4-7-9-14-15-19-5-4-14-9-26-12-3-2-6-5-5-9l0-43c-1-5 3-9 8-8l24-16 0-75c-1 5 1 2 3-3l1-3c0 0 8-20 18-28 7-7 16-11 26-15 9-3 17-5 30-5 11 0 21 2 31 4 11 2 20 6 31 11 3 1 5 4 4 7l0 39c1 3-1 6-4 7-3 2-6 2-9 0-11-7-17-9-28-9-6 0-10 1-15 4-1 3-4 12-5 16 0 3-1 6-2 7-1 2-1 11 0 20l0 39 55 0c5-1 9 3 8 8l0 48c1 5-3 9-8 8z m-9-48l-55 0c-5 1-9-3-8-8l0-47c-1-13-1-21 1-26 1-1 1-3 2-6 4-15 6-22 12-26 7-4 15-6 24-6 9 0 16 1 24 4l0-18c-7-3-14-6-22-8-9-1-18-2-27-2-11 0-17 1-25 4-8 2-15 6-20 11-5 3-11 15-13 22l-1 2c-2 4-2 5-3 13l0 83c1 5-3 9-8 9l-23 0 0 28c11 4 19 9 25 14 8 7 15 15 19 25 4 7 7 17 9 27l25 0 0-55c0-5 4-9 9-8l55 0z"/>
<glyph glyph-name="twitter" unicode="&#57354;" d="M256 513c-141 0-257-116-257-257 0-141 116-257 257-257 141 0 257 116 257 257 0 141-116 257-257 257z m0-496c-132 0-239 107-239 239 0 132 107 239 239 239 132 0 239-107 239-239 0-132-107-239-239-239z m141 318c1 4 3 7 4 11 1 3 0 7-3 9-3 2-6 2-9 1-9-5-17-9-27-11-11 10-26 16-41 16-33 0-61-28-61-61 0-1 0-2 0-3-36 4-69 23-92 51-1 2-4 3-7 3-3 0-5-2-7-4-5-10-8-20-8-31 0-10 3-20 7-29-1 0-2 0-3-1-3-2-4-5-4-8 0-18 8-35 21-46 0 0-1 0-1 0-2-3-2-6-1-9 5-17 18-31 35-38-17-8-36-11-55-9-4 0-8-2-9-6-1-3 0-7 3-10 26-16 55-25 85-25 99 0 158 81 158 158 0 1 0 2 0 3 10 8 18 16 25 27 2 3 2 7 0 10-3 3-7 4-10 2z m-28-28c-3-2-4-4-4-7 0-2 0-4 0-7 0-69-52-140-140-140-16 0-32 2-47 7 18 4 35 11 49 23 3 2 4 6 3 9-1 3-4 6-8 6-14 0-27 7-35 18 4 1 8 1 12 2 4 2 6 5 6 9 0 4-3 7-7 8-16 3-29 15-33 31 4-1 8-2 13-2 4 0 7 2 8 6 1 3 0 7-3 9-12 9-20 22-20 37 0 4 1 7 2 11 27-29 65-46 105-48 2 0 5 1 7 3 1 2 2 5 1 7 0 4-1 7-1 10 0 25 20 44 44 44 12 0 24-5 32-13 2-3 5-4 8-3 3 1 5 1 8 2-1-1-2-2-4-3-3-2-5-6-3-10 1-3 5-6 9-5 1 0 2 0 3 0-2-1-4-3-5-4z"/>
<glyph glyph-name="uparrows15" unicode="&#57355;" d="M377 206c-6-5-14-5-19 0l-99 99-105-104c-5-6-13-6-19 0-5 5-5 13 0 19l114 113c6 6 14 6 19 0l109-108c5-5 5-13 0-19z m135 50c0-141-115-256-256-256-141 0-256 115-256 256 0 141 115 256 256 256 141 0 256-115 256-256z m-27 0c0 127-103 229-229 229-127 0-229-102-229-229 0-127 102-229 229-229 126 0 229 102 229 229z"/>
<glyph glyph-name="upload" unicode="&#57356;" d="M414 293c-5 80-61 158-164 158-94 0-167-70-170-163-52-16-80-71-80-111 0-62 51-116 110-116l79 0c3 0 6 3 6 6 0 3-3 6-6 6l-79 0c-52 0-98 49-98 104 0 37 33 103 98 103l18 0c3 0 6 3 6 6 0 4-3 7-6 7l-18 0c-6 0-12-1-18-2 5 73 60 148 158 148 105 0 152-82 152-159l0-18c0-3 3-6 6-6 4 0 6 3 6 6l0 18c0 0 0 0 0 0 37-4 86-43 86-103 0-47-45-104-98-104l-91 0c-40 0-55 16-55 55l0 167 50-49c1-2 2-2 4-2 2 0 3 0 4 2 3 2 3 6 0 8l-54 54c-7 8-13 8-20 0l-55-54c-2-2-2-6 0-8 3-3 7-3 9 0l50 49 0-167c0-46 20-67 67-67l91 0c59 0 110 64 110 116 0 63-51 112-98 116z"/>
<glyph glyph-name="video" unicode="&#57357;" d="M104 477l-83 0c-12 0-21-8-21-20l0-402c0-12 9-20 21-20l470 0c12 0 21 8 21 20l0 402c0 12-9 20-21 20z m-90-422l0 402c0 4 2 7 7 7l76 0 0-416-76 0c-5 0-7 3-7 7z m97-7l0 416 290 0 0-416z m387 409l0-402c0-4-2-7-7-7l-76 0 0 416 76 0c5 0 7-3 7-7z m-294-119c-2 1-4 1-7 0-2-1-3-3-3-6l0-166c0-3 1-5 3-6 1-1 3-1 4-1 1 0 2 1 3 1l125 83c2 2 3 4 3 6 0 2-1 5-3 6z m4-159l0 140 105-70z m-139 188l-27 0c-4 0-7-3-7-7 0-4 3-7 7-7l27 0c4 0 7 3 7 7 0 4-3 7-7 7z m-27 41l27 0c4 0 7 3 7 7 0 4-3 7-7 7l-27 0c-4 0-7-3-7-7 0-4 3-7 7-7z m27-97l-27 0c-4 0-7-3-7-7 0-3 3-6 7-6l27 0c4 0 7 3 7 6 0 4-3 7-7 7z m0-55l-27 0c-4 0-7-3-7-7 0-4 3-7 7-7l27 0c4 0 7 3 7 7 0 4-3 7-7 7z m0-55l-27 0c-4 0-7-3-7-7 0-4 3-7 7-7l27 0c4 0 7 3 7 7 0 4-3 7-7 7z m0-56l-27 0c-4 0-7-3-7-7 0-3 3-7 7-7l27 0c4 0 7 4 7 7 0 4-3 7-7 7z m0-55l-27 0c-4 0-7-3-7-7 0-4 3-7 7-7l27 0c4 0 7 3 7 7 0 4-3 7-7 7z m374 263l27 0c4 0 7 3 7 7 0 4-3 7-7 7l-27 0c-4 0-7-3-7-7 0-4 3-7 7-7z m0 55l27 0c4 0 7 3 7 7 0 4-3 7-7 7l-27 0c-4 0-7-3-7-7 0-4 3-7 7-7z m0-110l27 0c4 0 7 3 7 6 0 4-3 7-7 7l-27 0c-4 0-7-3-7-7 0-3 3-6 7-6z m0-56l27 0c4 0 7 3 7 7 0 4-3 7-7 7l-27 0c-4 0-7-3-7-7 0-4 3-7 7-7z m0-55l27 0c4 0 7 3 7 7 0 4-3 7-7 7l-27 0c-4 0-7-3-7-7 0-4 3-7 7-7z m0-56l27 0c4 0 7 4 7 7 0 4-3 7-7 7l-27 0c-4 0-7-3-7-7 0-3 3-7 7-7z m27-41l-27 0c-4 0-7-3-7-7 0-4 3-7 7-7l27 0c4 0 7 3 7 7 0 4-3 7-7 7z"/>
<glyph glyph-name="wallet" unicode="&#57358;" d="M438 371c4 0 7 3 7 6l0 23c0 12-10 22-22 22l-37 0-8 24c-1 4-5 5-8 4l-196-59c-4-1-6-5-5-9 1-3 4-4 7-4 0 0 1 0 2 0l190 58 18-54c1-3 5-5 8-4 4 1 6 5 4 9l-7 21 32 0c4 0 8-4 8-8l0-23c0-3 3-6 7-6z m54-102c-4 0-7-3-7-6 0-4 3-7 7-7 5 0 7-2 7-7l0-81c0-4-2-6-7-6l-108 0c-5 0-7 2-7 6l0 68c0 5 2 7 7 7l81 0c4 0 7 3 7 6l0 81c0 12-8 20-21 20l-411 0c-16 0-27 11-27 27 0 17 11 27 27 27l69 0-41-13c-3-1-5-5-4-9 1-3 3-4 6-4 1 0 2 0 2 0l244 80c4 2 6 5 5 9-1 3-5 5-9 4l-163-54c0 1 0 1-1 1l-108 0c-24 0-40-17-40-41l0-296c0-24 16-41 40-41l411 0c13 0 21 8 21 21l0 67c0 4-3 7-7 7-4 0-7-3-7-7l0-67c0-5-2-7-7-7l-411 0c-16 0-27 10-27 27l0 265c7-6 17-9 27-9l411 0c5 0 7-2 7-7l0-74-74 0c-12 0-20-8-20-20l0-68c0-12 8-20 20-20l108 0c12 0 20 8 20 20l0 81c0 13-8 20-20 20z m-47-67c0-7-6-13-14-13-7 0-13 6-13 13 0 8 6 14 13 14 8 0 14-6 14-14z"/>
<glyph glyph-name="warning45" unicode="&#57359;" d="M256 512c-141 0-256-115-256-256 0-141 115-256 256-256 141 0 256 115 256 256 0 141-115 256-256 256z m0-486c-127 0-230 103-230 230 0 127 103 230 230 230 127 0 230-103 230-230 0-127-103-230-230-230z m29 172l11 230-80 0 11-230z m-29-26c-27 0-45-18-45-46 0-26 18-46 44-46l1 0c28 0 46 20 46 46-1 28-19 46-46 46z"/>
<glyph glyph-name="wine" unicode="&#57360;" d="M437 389c0 36-11 89-32 120-2 2-4 3-7 3l-287 0c-3 0-6-1-7-3-21-31-32-84-32-120 0-94 76-200 176-205l0-136-66 0c-18 1-32-13-32-31l0-9c0-4 4-8 8-8l192 0c5 0 8 4 8 8l0 8c0 19-14 33-32 32l-62 0 0 136c100 5 173 111 173 205z m-95-373l-176 0 0 1c0 10 7 16 16 16l144 0c10 0 16-7 16-17z m-227 480l279 0c17-27 26-72 27-103-14 3-28 5-45 5-50 0-76-15-101-29-23-14-46-27-92-27-47 0-69 13-93 27l-1 0c0 7-1 14-1 20 0 32 9 79 27 107z m-22-147c22-12 47-23 90-23 50 0 76 15 101 29 23 14 46 27 92 27 17 0 31-2 44-5-6-85-76-178-166-178-79 0-143 74-161 150z"/>
<glyph glyph-name="shopper29" unicode="&#57;" d="M448 369c-1 9-8 15-16 15l-80 0 0 32c0 53-43 96-96 96-53 0-96-43-96-96l0-32-80 0c-8 0-15-6-16-15l-32-352c0-4 1-8 4-12 3-3 8-5 12-5l416 0c4 0 9 2 12 5 3 4 4 8 4 12z m-256 47c0 35 29 64 64 64 35 0 64-29 64-64l0-32-128 0z m-126-384l29 320 65 0 0-36c-10-6-16-16-16-28 0-18 14-32 32-32 18 0 32 14 32 32 0 12-6 22-16 28l0 36 128 0 0-36c-10-6-16-16-16-28 0-18 14-32 32-32 18 0 32 14 32 32 0 12-6 22-16 28l0 36 65 0 29-320z"/>
<glyph glyph-name="doc2" unicode="&#57361;" d="M261 128c-17 0-27-17-27-39 0-22 10-37 27-37 18 0 27 16 27 38 0 20-9 38-27 38z m-129-1c-5 0-9 0-11-1l0-74c2 0 6 0 9 0 23 0 38 12 38 39 0 24-14 36-36 36z m309 262c0 3 0 5-2 7l-99 113c0 0 0 0 0 0 0 0-1 1-2 1 0 0 0 1 0 1-1 0-2 0-2 1 0 0-1 0-1 0-1 0-1 0-2 0l-243 0c-11 0-20-9-20-20l0-472c0-11 9-20 20-20l331 0c12 0 21 9 21 20l0 368c0 1 0 1-1 1z m-265-342c-11-10-30-15-52-15-13 0-22 1-29 2l0 111c10 1 22 2 35 2 21 0 35-4 46-12 12-9 19-23 19-43 0-21-8-36-19-45z m84-16c-34 0-53 26-53 58 0 34 21 59 55 59 34 0 53-26 53-57 0-37-22-60-55-60z m130 22c8 0 16 1 21 3l4-20c-4-2-15-5-29-5-39 0-59 25-59 57 0 39 28 60 62 60 13 0 23-3 28-5l-6-20c-5 2-12 4-21 4-20 0-36-12-36-38 0-22 13-36 36-36z m-300 118l0 321 233 0 0-103c0-5 4-10 10-10l88 0 1-208z m140 202l73 0c4 0 7 3 7 7 0 4-3 7-7 7l-73 0c-3 0-6-3-6-7 0-4 3-7 6-7z m109-39l-181 0c-4 0-7-3-7-7 0-4 3-7 7-7l181 0c4 0 7 3 7 7 0 4-3 7-7 7z m-162 26l6 25c1 6 2 11 3 17l0 0c1-6 2-11 3-17l6-25 10 0 15 53-10 0-6-24c-1-6-3-12-3-18l-1 0c0 6-2 12-3 18l-5 24-10 0-6-24c-2-6-3-13-4-18l0 0c-1 5-2 12-4 18l-5 24-10 0 13-53 11 0z m162-79l-181 0c-4 0-7-3-7-7 0-4 3-7 7-7l181 0c4 0 7 3 7 7 0 4-3 7-7 7z m0-54l-181 0c-4 0-7-3-7-7 0-4 3-7 7-7l181 0c4 0 7 3 7 7 0 4-3 7-7 7z"/>
<glyph glyph-name="download8" unicode="&#57362;" d="M256 137l171 170-103 0 0 205-136 0 0-205-103 0z m137 0l0-69-274 0 0 69-68 0 0-137 410 0 0 137z"/>
<glyph glyph-name="pdf19" unicode="&#57363;" d="M248 127c-6 0-10-1-12-1l0-80c2-1 6-1 10-1 24 0 41 14 41 43 0 25-15 39-39 39z m-106 0c-6 0-9-1-11-1l0-36c2-1 5-1 9-1 14 0 24 8 24 20 0 11-8 18-22 18z m299 262c0 3 0 5-2 7l-99 113c0 0 0 0 0 0 0 0-1 1-2 1 0 0 0 1 0 1-1 0-2 0-2 1 0 0-1 0-1 0-1 0-1 0-2 0l-243 0c-11 0-20-9-20-20l0-472c0-11 9-20 20-20l331 0c12 0 21 9 21 20l0 368c0 1 0 1-1 1z m-261-308c-10-9-24-13-40-13-4 0-7 0-9 1l0-44-28 0 0 120c9 2 21 3 38 3 17 0 29-3 37-10 8-6 13-16 13-28 0-12-4-22-11-29z m116-41c-13-11-33-16-56-16-15 0-25 1-32 2l0 119c10 2 24 3 38 3 23 0 38-4 49-13 13-10 21-25 21-46 0-23-9-39-20-49z m112 84l-46 0 0-28 43 0 0-22-43 0 0-49-28 0 0 122 74 0z m-318 47l0 321 233 0 0-103c0-5 4-10 10-10l88 0 1-208z m269 125c-1 0-15 2-37 2-6 0-13 0-20-1-43 32-78 65-97 83 1 2 1 3 1 4 2 27 0 44-8 53-5 6-13 7-21 5-5-1-14-6-17-15-3-11 2-24 16-39 0 0 5-5 13-13-6-26-20-82-27-109-16-9-29-19-40-31l-1-1 0-1c-1-2-6-14-2-24 1-4 5-7 9-9l1 0c0 0 1 0 3 0 9 0 29 4 41 45l2 10c39 19 87 25 122 27 18-13 36-26 54-37l0 0c1 0 9-4 18-4 12 0 22 8 25 21l0 1c1 8-1 15-5 21-10 11-28 12-30 12z m-226-81c0 0 0 0 0 0-1 2 0 7 1 11 6 7 14 13 23 19-9-28-21-30-24-30z m54 183c-13 15-13 22-12 24 1 4 6 6 6 6 3 1 4 0 6-1 3-4 6-14 5-34-4 3-5 5-5 5z m-7-124l0 1 0 0c7 26 16 63 22 87l0 0 0 0c17-16 44-41 77-66l-1 0 1 0c-31-3-67-9-99-22z m199-8c-2-9-6-10-10-10-5 0-10 2-11 2-12 8-24 16-36 25 0 0 0 0 0 0 21 0 35-2 36-2 3 0 14-1 19-7 2-2 3-5 2-8z"/>
<glyph glyph-name="ppt" unicode="&#57364;" d="M254 126c-6 0-10 0-12-1l0-36c3-1 5-1 9-1 15 0 24 8 24 20 0 11-8 18-21 18z m-105 0c-6 0-10 0-12-1l0-36c3-1 5-1 9-1 15 0 24 8 24 20 0 11-8 18-21 18z m293 263c0 3-1 5-3 7l-98 113c0 0 0 0 0 0-1 0-2 1-2 1-1 0-1 1-1 1-1 0-1 0-2 1 0 0 0 0-1 0 0 0-1 0-2 0l-243 0c-11 0-20-9-20-20l0-472c0-11 9-20 20-20l332 0c11 0 20 9 20 20l0 368c0 0 0 1 0 1z m-256-309c-9-9-23-13-39-13-4 0-7 0-10 1l0-44-27 0 0 120c8 2 20 3 37 3 17 0 29-3 37-10 8-6 13-16 13-28 0-12-4-22-11-29z m105 0c-9-9-23-13-39-13-4 0-7 0-10 1l0-44-27 0 0 120c8 2 20 3 37 3 17 0 29-3 37-10 8-6 13-16 13-28 0-12-4-22-11-29z m113 43l-33 0 0-99-28 0 0 99-32 0 0 23 93 0 0-23z m-314 48l0 321 233 0 0-103c0-5 5-10 10-10l89 0 0-208z m151 210c-46 0-83-36-83-82 0-45 37-82 83-82 45 0 82 37 82 82l-82 0z m11-69l0 0 82 0c0 23-10 44-25 59z m-1 15l58 58c-16 16-37 24-58 24l0-82z"/>
<glyph glyph-name="address" unicode="&#57365;" d="M218 486c7 0 10-3 10-10 0 0 0-440 0-440 0-7-3-10-10-10 0 0-23 0-23 0-7 0-11 3-11 10 0 0 0 225 0 225 0 0-90 0-90 0-5 0-10 1-14 3-4 1-9 3-13 6 0 0-62 42-62 42-3 2-5 5-5 9 0 3 2 6 5 8 0 0 62 42 62 42 4 3 9 5 13 6 3 1 7 2 14 2 0 0 90 0 90 0 0 0 0 97 0 97 0 7 4 10 11 10 0 0 23 0 23 0m289-106c3-2 5-5 5-8 0-4-2-6-5-8 0 0-61-42-61-42-7-5-11-7-13-7-5-2-9-3-14-3 0 0-155 0-155 0 0 0-20 118-20 118 0 0 175 0 175 0 6 0 11-1 14-2 4-1 8-3 13-6 0 0 61-42 61-42"/>
<glyph glyph-name="adjust" unicode="&#57366;" d="M486 276c7 0 13-2 18-6 5-4 8-9 8-14 0-14-9-20-26-20 0 0-24 0-24 0-17 0-26 6-26 20 0 5 3 10 8 14 5 4 11 6 18 6 0 0 24 0 24 0m-230 120c39 0 72-13 100-41 27-27 41-60 41-99 0-40-14-73-41-100-28-28-61-41-100-41-39 0-72 13-99 41-28 27-41 60-41 100 0 39 13 72 41 99 27 28 60 41 99 41m3-242c0 0 0 204 0 204-29 0-54-10-75-30-20-20-30-44-30-72 0-29 10-53 30-73 21-20 46-29 75-29m-182 102c0-14-9-20-26-20 0 0-25 0-25 0-17 0-26 6-26 20 0 5 3 10 8 14 5 4 11 6 18 6 0 0 25 0 25 0 7 0 13-2 18-6 5-4 8-9 8-14m179 179c-5 0-10 3-14 8-4 5-6 11-6 18 0 0 0 25 0 25 0 7 2 13 6 18 4 5 9 8 14 8 5 0 10-3 14-8 4-5 6-11 6-18 0 0 0-25 0-25 0-7-2-13-6-18-4-5-9-8-14-8m0-358c5 0 10-3 14-8 4-5 6-11 6-18 0 0 0-25 0-25 0-7-2-13-6-18-4-5-9-8-14-8-5 0-10 3-14 8-4 5-6 11-6 18 0 0 0 25 0 25 0 7 2 13 6 18 4 5 9 8 14 8m188 338c0 0-17-18-17-18-12-11-23-13-33-4-9 10-8 21 4 33 2 2 8 8 18 18 12 12 23 13 33 3 9-9 8-20-5-32m-358-301c5 5 10 8 17 9 6 1 11-1 15-5 4-4 6-10 5-16-1-7-4-12-8-17 0 0-19-18-19-18-5-5-10-8-17-9-6 0-11 1-14 5-11 10-10 21 3 33 2 2 8 7 18 18m10 330c0 0 19-18 19-18 12-12 13-23 3-33-4-3-9-5-15-4-7 1-12 4-17 8-10 11-16 16-18 18-5 4-8 10-9 17 0 6 1 11 6 15 3 5 8 6 14 6 7-1 12-4 17-9m302-359c-12 12-13 23-4 33 10 9 21 8 33-4 0 0 17-18 17-18 13-12 14-23 5-33-10-9-21-8-33 4-10 10-16 16-18 18"/>
<glyph glyph-name="air" unicode="&#57367;" d="M68 350c-6-5-12-7-19-6-7 1-12 4-17 9-5 5-7 11-6 19 0 7 3 13 9 18 16 14 30 24 40 31 11 7 26 14 46 20 20 7 42 8 66 2 24-5 51-16 81-33 30-17 57-27 80-28 23-1 40 2 51 9 11 6 26 18 45 34 13 10 25 9 36-3 11-14 10-26-3-37-41-38-81-56-120-56-34 0-72 12-113 36-23 13-44 21-61 26-18 5-33 5-48 0-14-5-25-10-33-15-8-5-19-14-34-26m376-56c13 11 25 10 36-3 11-14 10-26-3-37-13-12-25-21-33-27-9-7-21-13-37-20-16-6-33-9-50-9-32 0-70 12-113 35-23 13-44 22-61 27-18 5-33 5-48 0-14-5-25-10-33-15-8-5-19-14-34-26-5-5-11-7-18-6-8 1-13 4-18 9-11 14-10 26 3 37 13 12 23 20 31 26 7 5 19 12 35 19 16 8 31 12 45 12 14 0 32-2 54-8 22-5 44-15 68-28 24-13 44-22 61-27 18-5 33-5 48 0 14 5 25 10 33 15 8 5 19 14 34 26m0-131c13 11 25 10 36-3 5-5 7-11 6-19 0-7-3-13-9-18-13-12-25-21-33-27-9-7-21-13-37-20-16-6-33-9-50-9-32 0-70 12-113 35-23 13-44 22-61 27-18 5-33 5-48 1-14-5-25-10-34-15-8-6-19-15-33-27-5-5-11-7-18-6-8 1-13 4-18 9-11 14-10 26 3 37 13 12 23 20 31 26 7 5 19 12 35 19 16 8 31 11 45 12 14 0 32-2 54-8 22-5 44-15 68-29 24-12 44-21 61-26 18-5 33-5 48 0 14 5 25 10 33 15 8 5 19 14 34 26"/>
<glyph glyph-name="alert" unicode="&#57368;" d="M478 197c7-6 10-11 8-17-1-6-6-10-14-12 0 0-40-11-40-11-8-2-15-7-20-15-6-7-8-15-7-24 0 0 2-42 2-42 0-8-2-14-8-18-5-3-12-3-19 0 0 0-44 23-44 23-8 4-16 5-24 2-9-3-15-8-18-15 0 0-24-45-24-45-4-8-9-12-14-12-6-1-12 3-17 9 0 0-26 40-26 40-12 17-27 20-45 11 0 0-62-36-62-36-8-5-13-6-17-3-3 2-4 8-1 16 0 0 28 84 28 84 3 8 2 16-2 23-4 6-11 10-19 11 0 0-54 6-54 6-8 1-13 4-15 9-2 5 1 10 8 16 0 0 44 39 44 39 7 5 10 12 10 21 0 8-3 15-10 21 0 0-44 38-44 38-7 6-10 12-8 17 1 6 6 10 14 12 0 0 40 11 40 11 8 2 15 7 21 15 6 7 8 15 8 24 0 0-3 42-3 42 0 9 2 15 7 19 5 3 12 3 19 0 0 0 41-20 41-20 8-3 17-4 25-1 9 3 15 8 19 16 0 0 24 41 24 41 4 7 9 11 15 10 6 0 11-4 15-12 0 0 26-44 26-44 4-7 10-12 18-14 8-3 15-2 23 3 0 0 70 43 70 43 7 5 12 6 15 3 3-2 3-8 0-16 0 0-31-87-31-87-3-8-3-15 1-21 4-7 11-10 20-11 0 0 58-6 58-6 9-1 14-3 15-8 2-5-1-10-8-16 0 0-44-38-44-38-6-6-9-13-9-21 0-9 3-16 9-21 0 0 44-39 44-39m-196-47c0 0 0 53 0 53 0 0-52 0-52 0 0 0 0-53 0-53 0 0 52 0 52 0m0 81c0 0 0 134 0 134 0 0-52 0-52 0 0 0 0-134 0-134 0 0 52 0 52 0"/>
<glyph glyph-name="archive" unicode="&#57369;" d="M435 384c0 0 0-26 0-26 0 0-357 0-357 0 0 0 0 26 0 26 0 8 3 13 7 18 5 4 9 7 13 8 0 0 6 0 6 0 0 0 305 0 305 0 2 0 5-1 7-1 3 0 7-3 12-7 4-5 7-10 7-18m-76 77c2 0 4 0 7-1 3 0 7-2 11-7 5-4 8-10 8-18 0 0-255 0-255 0 0 8 2 14 6 18 5 5 9 7 13 8 0 0 6 0 6 0 0 0 204 0 204 0m127-103c12-11 18-18 19-23 3-6 3-16 0-28 0 0-38-230-38-230-2-8-5-14-11-18-5-5-10-7-14-8 0 0-7 0-7 0 0 0-357 0-357 0-17 0-28 9-30 26-2 9-9 47-20 114-11 67-18 106-20 116-4 8-4 15-2 23 3 7 4 12 5 13 1 1 5 5 11 10 0 0 5 5 5 5 0 0 16 16 16 16 0 0 0-41 0-41 0 0 428 0 428 0 0 0 0 41 0 41 0 0 15-16 15-16m-127-138c0 0 0 51 0 51 0 0-36 0-36 0 0 0 0-41 0-41 0 0-133 0-133 0 0 0 0 41 0 41 0 0-35 0-35 0 0 0 0-51 0-51 0-17 8-25 25-25 0 0 153 0 153 0 8 0 14 2 18 6 5 4 7 8 7 12 0 0 1 7 1 7"/>
<glyph glyph-name="arrow-combo" unicode="&#57370;" d="M256 512c0 0 118-186 118-186 0 0-236 0-236 0 0 0 118 186 118 186m0-512c0 0-118 187-118 187 0 0 236 0 236 0 0 0-118-187-118-187"/>
<glyph glyph-name="arrows-ccw" unicode="&#57371;" d="M141 148c0 0 60 60 60 60 0 0 0-150 0-150 0 0-142 9-142 9 0 0 45 44 45 44-39 41-59 91-58 148 1 57 21 107 62 148 34 34 75 53 122 59 0 0 2-52 2-52-34-6-63-21-88-45-30-30-45-67-46-109 0-43 14-80 43-112m170 307c0 0 142-9 142-9 0 0-45-44-45-44 39-41 59-91 58-148-1-57-21-107-62-148-32-33-73-53-122-60 0 0-1 53-1 53 33 6 62 21 87 45 30 30 45 67 46 109 0 43-14 80-43 112 0 0-59-60-59-60 0 0-1 150-1 150"/>
<glyph glyph-name="attach" unicode="&#57372;" d="M141 5c-35 0-64 12-87 37-25 24-38 52-38 85-1 33 13 65 43 97 0 0 254 254 254 254 27 28 57 37 89 28 15-4 28-12 40-24 12-12 20-26 24-41 9-32 0-62-27-90 0 0-243-242-243-242-14-14-29-22-45-24-17-1-30 3-41 14-10 9-15 21-14 38 1 17 9 33 24 47 0 0 170 171 170 171 8 9 17 9 26 0 9-9 9-17 0-25 0 0-170-170-170-170-15-15-19-27-11-36 5-3 9-4 13-3 8 1 16 6 23 13 0 0 243 243 243 243 17 17 23 35 17 55-5 21-18 34-39 39-18 5-36-1-55-18 0 0-253-253-253-253-22-26-33-51-33-74 1-22 10-42 27-59 17-17 37-25 60-26 23-1 47 10 72 32 0 0 254 253 254 253 8 8 17 8 26 0 9-8 9-16 0-25 0 0-254-254-254-254-28-28-60-42-95-42"/>
</font>
</defs>
</svg>
